<svg width="256" height="256" viewBox="0 0 256 256" fill="none" xmlns="http://www.w3.org/2000/svg">
<g clip-path="url(#clip0_29_25)">
<path d="M215.464 94.8156V165.316L183.171 144.468L198.946 134.283C200.378 133.358 201.243 131.77 201.243 130.066C201.243 128.361 200.378 126.773 198.946 125.848L183.172 115.664L215.464 94.8156Z" fill="#E73C36"/>
<path d="M39.2334 94.8156V165.316L71.5264 144.468L55.7512 134.283C54.3193 133.358 53.4542 131.77 53.4542 130.066C53.4542 128.361 54.3192 126.773 55.7512 125.848L71.5259 115.664L39.2334 94.8156Z" fill="#E73C36"/>
<path d="M127.348 79.6244L90.0349 55.535L127.348 31.4454L164.66 55.535L127.348 79.6244Z" fill="#FFAD48"/>
<path d="M127.348 228.686L90.0349 204.596L127.348 180.507L164.66 204.596L127.348 228.686Z" fill="#FFAD48"/>
<path d="M80.8806 198.568L43.5679 174.478L80.8806 150.389L118.193 174.478L80.8806 198.568Z" fill="#F47238"/>
<path d="M80.8806 109.69L43.5679 85.6L80.8806 61.5103L118.193 85.6L80.8806 109.69Z" fill="#F47238"/>
<path d="M173.814 198.568L136.502 174.478L173.814 150.389L211.127 174.478L173.814 198.568Z" fill="#F47238"/>
<path d="M173.814 109.69L136.502 85.6L173.814 61.5103L211.127 85.6L173.814 109.69Z" fill="#F47238"/>
<path d="M127.348 168.557L67.728 130.065C87.6015 117.235 107.474 104.405 127.348 91.575C147.221 104.405 167.095 117.235 186.968 130.065L127.348 168.557Z" fill="#8B2343"/>
</g>
<defs>
<clipPath id="clip0_29_25">
<rect width="181" height="201.686" fill="white" transform="translate(38 27)"/>
</clipPath>
</defs>
</svg>
