<svg width="30" height="33" viewBox="0 0 30 33" fill="none" xmlns="http://www.w3.org/2000/svg">
<path d="M15.2923 0.238008C15.0438 0.0775652 14.7243 0.0775652 14.4758 0.238008L0.909058 8.99693C0.689533 9.13378 0.554688 9.37481 0.554688 9.63557V22.5997C0.554688 22.8553 0.684386 23.0934 0.899105 23.232L14.4758 31.9973C14.7243 32.1578 15.0438 32.1578 15.2923 31.9973L28.869 23.232C29.0837 23.0934 29.2134 22.8553 29.2134 22.5997V9.63754C29.2141 9.37669 29.0797 9.13446 28.8591 8.99695L15.2923 0.238008Z" fill="black"/>
<path d="M27.729 10.979V21.2562L23.0215 18.217L25.3211 16.7323C25.5299 16.5975 25.656 16.366 25.656 16.1176C25.656 15.8691 25.5299 15.6376 25.3211 15.5028L23.0216 14.0182L27.729 10.979Z" fill="#E73C36"/>
<path d="M2.03858 10.979V21.2562L6.74609 18.217L4.44647 16.7323C4.23772 16.5975 4.11162 16.366 4.11162 16.1176C4.11162 15.8691 4.23771 15.6376 4.44647 15.5028L6.74602 14.0182L2.03858 10.979Z" fill="#E73C36"/>
<path d="M14.8846 8.76451L9.44531 5.25286L14.8846 1.74121L20.3238 5.25286L14.8846 8.76451Z" fill="#FFAD48"/>
<path d="M14.8846 30.494L9.44531 26.9824L14.8846 23.4707L20.3238 26.9824L14.8846 30.494Z" fill="#FFAD48"/>
<path d="M8.11016 26.1036L2.6709 22.592L8.11016 19.0803L13.5494 22.592L8.11016 26.1036Z" fill="#F47238"/>
<path d="M8.11016 13.1473L2.6709 9.63568L8.11016 6.12402L13.5494 9.63568L8.11016 13.1473Z" fill="#F47238"/>
<path d="M21.658 26.1036L16.2188 22.592L21.658 19.0803L27.0973 22.592L21.658 26.1036Z" fill="#F47238"/>
<path d="M21.658 13.1473L16.2188 9.63568L21.658 6.12402L27.0973 9.63568L21.658 13.1473Z" fill="#F47238"/>
<path d="M14.8845 21.7286L6.19336 16.1176C9.09042 14.2472 11.9874 12.377 14.8845 10.5066C17.7815 12.3769 20.6786 14.2472 23.5756 16.1176L14.8845 21.7286Z" fill="#8B2343"/>
</svg>
