<svg width="292" height="256" viewBox="0 0 292 256" fill="none" xmlns="http://www.w3.org/2000/svg">
<path fill-rule="evenodd" clip-rule="evenodd" d="M133.361 15.2777C124.714 19.6479 106.49 28.1512 96.6198 34.9375C86.7493 41.7239 87.9729 48.0482 83.6526 52.4185C79.3323 56.7887 66.359 67.7081 57.7184 74.2572C49.0716 80.8125 51.2317 98.2935 49.0716 104.849C46.9114 111.398 42.5911 126.688 40.431 133.243C38.2646 139.798 44.7513 148.539 49.0716 157.279C53.3981 166.013 64.1988 190.044 68.5254 198.778C72.8457 207.518 85.819 203.148 96.6198 211.888C107.42 220.629 122.554 231.555 133.361 238.104C144.162 244.659 148.488 244.659 159.295 238.104C170.096 231.548 185.229 220.623 196.036 211.882C206.837 203.148 219.811 207.518 224.131 198.778C228.451 190.037 239.258 166.013 243.585 157.273C247.905 148.532 254.385 139.792 252.225 133.243C250.065 126.688 245.745 111.392 243.585 104.843C241.424 98.2872 243.585 80.8125 234.938 74.2572C226.291 67.7018 216.258 59.3609 209.004 52.4122C201.749 45.4635 204.683 41.4866 196.036 34.9313C187.39 28.3822 167.942 19.6479 159.295 15.2777C150.648 10.9074 142.002 10.9074 133.361 15.2777Z" fill="white"/>
<path fill-rule="evenodd" clip-rule="evenodd" d="M102.839 53.18L143.289 80.931C144.199 81.5421 145.265 81.8781 146.361 81.8987C147.458 81.8887 148.527 81.5518 149.432 80.931L189.913 53.0864C190.69 52.5265 191.309 51.7757 191.711 50.9066C192.112 50.0374 192.282 49.0793 192.205 48.125C192.128 47.1707 191.806 46.2525 191.27 45.4592C190.734 44.6659 190.002 44.0244 189.145 43.5967L148.696 23.4686C147.939 23.0991 147.109 22.907 146.267 22.907C145.425 22.907 144.595 23.0991 143.838 23.4686L103.507 43.5967C102.634 44.0253 101.889 44.6755 101.346 45.4823C100.803 46.2891 100.482 47.2243 100.414 48.1944C100.345 49.1645 100.533 50.1355 100.957 51.0104C101.382 51.8853 102.029 52.6334 102.833 53.18H102.839ZM160.102 89.6403C160.101 90.5445 160.319 91.4355 160.736 92.2377C161.154 93.0398 161.759 93.7294 162.499 94.2478L194.927 116.523C195.933 117.222 197.146 117.559 198.368 117.48C199.59 117.4 200.749 116.909 201.657 116.086L228.858 91.6319C229.459 91.0912 229.935 90.4262 230.253 89.6831C230.571 88.94 230.723 88.1366 230.7 87.3287C230.676 86.5207 230.476 85.7277 230.115 85.0046C229.754 84.2814 229.24 83.6456 228.609 83.1411L202.637 62.2639C201.721 61.531 200.594 61.1113 199.422 61.0663C198.25 61.0214 197.094 61.3536 196.125 62.0141L162.499 85.1327C161.771 85.642 161.174 86.3166 160.758 87.1013C160.341 87.8859 160.116 88.752 160.102 89.6403ZM79.4461 119.945C80.7572 121.131 81.4314 122.879 81.2566 124.646C81.1752 125.519 80.884 126.36 80.408 127.097C79.9319 127.834 79.2849 128.445 78.5221 128.879L59.162 140.547C57.1953 141.721 54.7168 141.552 52.9312 140.117C51.1457 138.681 50.4152 136.277 51.1082 134.073L58.2692 111.423C58.5414 110.544 59.0299 109.747 59.6897 109.106C60.3496 108.464 61.1599 107.999 62.0463 107.752C62.9294 107.493 63.8648 107.469 64.7602 107.681C65.6557 107.893 66.4804 108.335 67.1532 108.963L79.4461 119.945ZM184.475 122.317L149.464 98.2309C148.557 97.6166 147.487 97.2882 146.392 97.2882C145.297 97.2882 144.227 97.6166 143.32 98.2309L108.308 122.311C107.619 122.793 107.046 123.424 106.631 124.156C106.216 124.889 105.97 125.704 105.911 126.544C105.865 127.39 106.006 128.236 106.324 129.022C106.643 129.808 107.13 130.513 107.753 131.089L142.733 162.542C143.737 163.447 145.04 163.948 146.392 163.948C147.743 163.948 149.047 163.447 150.05 162.542L185.025 131.083C185.648 130.511 186.135 129.806 186.448 129.02C186.761 128.234 186.894 127.388 186.835 126.544C186.79 125.705 186.554 124.888 186.145 124.154C185.736 123.421 185.165 122.79 184.475 122.311V122.317ZM91.0959 116.086L63.9193 91.6319C63.3135 91.0778 62.8347 90.3992 62.5157 89.6427C62.1967 88.8862 62.0451 88.0697 62.0713 87.2491C62.0842 86.4403 62.2755 85.6443 62.6317 84.918C62.9878 84.1917 63.5 83.553 64.1315 83.0475L90.1032 62.0454C91.0262 61.3121 92.159 60.8925 93.3369 60.8476C94.5148 60.8027 95.6763 61.1348 96.6524 61.7956L130.247 84.9142C131.808 85.9443 132.744 87.6987 132.744 89.5841C132.744 91.4696 131.808 93.2176 130.247 94.2478L97.851 116.523C95.7596 117.959 92.9876 117.772 91.0959 116.086ZM230.613 151.217L202.949 134.573C201.95 133.967 200.781 133.7 199.618 133.812C198.454 133.925 197.358 134.411 196.494 135.197L162.68 165.526C161.979 166.16 161.45 166.96 161.141 167.853C160.832 168.745 160.753 169.702 160.913 170.633C161.072 171.564 161.464 172.44 162.053 173.179C162.641 173.918 163.407 174.496 164.279 174.86L211.184 193.964C212.508 194.491 213.984 194.483 215.302 193.942C216.62 193.402 217.678 192.371 218.251 191.067L232.798 158.34C233.369 157.092 233.463 155.676 233.06 154.363C232.657 153.05 231.786 151.931 230.613 151.217ZM234.452 111.423L241.613 134.073H241.551C241.812 134.908 241.874 135.793 241.734 136.657C241.593 137.521 241.252 138.34 240.739 139.049C239.938 140.159 238.75 140.928 237.409 141.206C236.069 141.483 234.673 141.248 233.497 140.547L214.106 128.873C213.358 128.431 212.728 127.817 212.267 127.082C211.806 126.346 211.529 125.511 211.458 124.646C211.368 123.775 211.484 122.895 211.799 122.078C212.114 121.261 212.617 120.53 213.269 119.945L225.568 108.932C226.96 107.683 228.877 107.227 230.669 107.721C231.556 107.977 232.366 108.45 233.026 109.096C233.686 109.742 234.176 110.541 234.452 111.423ZM131.845 170.627C132.009 169.698 131.935 168.743 131.629 167.851C131.323 166.959 130.796 166.159 130.097 165.526L96.2902 135.191C95.4255 134.404 94.3296 133.919 93.1662 133.806C92.0028 133.694 90.8342 133.96 89.8348 134.566L62.1774 151.217C61.016 151.934 60.1524 153.046 59.7452 154.349C59.3381 155.652 59.4147 157.058 59.9611 158.309L74.5265 191.042C75.0961 192.351 76.1543 193.386 77.4756 193.926C78.7969 194.466 80.2768 194.468 81.6 193.933L128.474 174.829C129.346 174.473 130.114 173.902 130.705 173.168C131.296 172.434 131.69 171.562 131.851 170.633L131.845 170.627ZM148.446 179.961L186.067 195.269C186.974 195.663 187.76 196.292 188.343 197.091C188.925 197.89 189.284 198.83 189.383 199.814C189.501 200.81 189.346 201.82 188.935 202.735C188.524 203.65 187.871 204.436 187.048 205.008L149.401 231.298C148.501 231.937 147.427 232.285 146.323 232.297C145.223 232.278 144.153 231.93 143.252 231.298L105.63 205.015C104.802 204.444 104.145 203.661 103.727 202.747C103.309 201.833 103.146 200.823 103.257 199.824C103.367 198.825 103.745 197.875 104.352 197.074C104.959 196.273 105.772 195.651 106.704 195.275L144.325 179.967C145.648 179.436 147.124 179.43 148.446 179.961Z" fill="#BF4722"/>
</svg>
