<svg width="29" height="33" viewBox="0 0 29 33" fill="none" xmlns="http://www.w3.org/2000/svg">
<path d="M28.83 11.1406V22.5785L23.5908 19.1961L26.1502 17.5437C26.3825 17.3937 26.5228 17.1361 26.5228 16.8595C26.5228 16.583 26.3825 16.3253 26.1502 16.1753L23.5909 14.523L28.83 11.1406Z" fill="#E73C36"/>
<path d="M0.238362 11.1406V22.5785L5.47754 19.1961L2.9182 17.5437C2.68588 17.3937 2.54553 17.1361 2.54553 16.8595C2.54553 16.583 2.68587 16.3253 2.9182 16.1753L5.47746 14.523L0.238362 11.1406Z" fill="#E73C36"/>
<path d="M14.534 8.67613L8.48047 4.76787L14.534 0.859619L20.5876 4.76787L14.534 8.67613Z" fill="#FFAD48"/>
<path d="M14.534 32.8597L8.48047 28.9515L14.534 25.0432L20.5876 28.9515L14.534 32.8597Z" fill="#FFAD48"/>
<path d="M6.99497 27.9732L0.941406 24.065L6.99497 20.1567L13.0485 24.065L6.99497 27.9732Z" fill="#F47238"/>
<path d="M6.99497 13.5538L0.941406 9.64556L6.99497 5.7373L13.0485 9.64556L6.99497 13.5538Z" fill="#F47238"/>
<path d="M22.0731 27.9732L16.0195 24.065L22.0731 20.1567L28.1267 24.065L22.0731 27.9732Z" fill="#F47238"/>
<path d="M22.0731 13.5538L16.0195 9.64556L22.0731 5.7373L28.1267 9.64556L22.0731 13.5538Z" fill="#F47238"/>
<path d="M14.534 23.1045L4.86133 16.8597C8.08558 14.778 11.3097 12.6966 14.534 10.615C17.7582 12.6966 20.9825 14.7781 24.2067 16.8597L14.534 23.1045Z" fill="#8B2343"/>
</svg>
