<?xml version="1.0" encoding="UTF-8"?>
<!-- This file is generated by npm run build:icons -->
<svg xmlns="http://www.w3.org/2000/svg" xmlns:xlink="http://www.w3.org/1999/xlink" width="0" height="0">
<defs>
<symbol viewBox="0 0 24 24" id="archive">
<path fill-rule="evenodd" clip-rule="evenodd" d="M3.5 4.5V6.5H20.5V4.5H3.5ZM21.5 9.44999C22.6411 9.21836 23.5 8.20948 23.5 7V4C23.5 2.61929 22.3807 1.5 21 1.5H3C1.61929 1.5 0.5 2.61929 0.5 4V7C0.5 8.20948 1.35888 9.21836 2.5 9.44999V19C2.5 19.9283 2.86875 20.8185 3.52513 21.4749C4.1815 22.1313 5.07174 22.5 6 22.5H18C18.9283 22.5 19.8185 22.1312 20.4749 21.4749C21.1312 20.8185 21.5 19.9283 21.5 19V9.44999ZM18.5 9.5H5.5V19C5.5 19.1326 5.55268 19.2598 5.64645 19.3536C5.74021 19.4473 5.86739 19.5 6 19.5H18C18.1326 19.5 18.2598 19.4473 18.3536 19.3536C18.4473 19.2598 18.5 19.1326 18.5 19V9.5ZM8.5 12C8.5 11.1716 9.17157 10.5 10 10.5H14C14.8284 10.5 15.5 11.1716 15.5 12C15.5 12.8284 14.8284 13.5 14 13.5H10C9.17157 13.5 8.5 12.8284 8.5 12Z"></path>
</symbol>
<symbol viewBox="0 0 24 24" id="bolt">
<path fill-rule="evenodd" clip-rule="evenodd" d="M14.737 1.37654C15.1386 1.60046 15.3358 2.06944 15.2148 2.51309L13.3093 9.49997H20.25C20.6482 9.49997 21.0085 9.73622 21.1672 10.1014C21.3259 10.4666 21.2528 10.8912 20.9811 11.1823L10.4811 22.4323C10.1673 22.7685 9.66472 22.8473 9.26308 22.6234C8.86143 22.3995 8.66426 21.9305 8.78526 21.4869L10.6908 14.5H3.75002C3.35183 14.5 2.99158 14.2637 2.83287 13.8985C2.67417 13.5333 2.74727 13.1088 3.01897 12.8177L13.519 1.56765C13.8327 1.23148 14.3353 1.15262 14.737 1.37654ZM6.05124 12.5H12C12.3117 12.5 12.6055 12.6453 12.7947 12.893C12.9839 13.1407 13.0468 13.4624 12.9648 13.7631L11.7792 18.1103L17.9488 11.5H12C11.6883 11.5 11.3945 11.3547 11.2053 11.107C11.0161 10.8593 10.9533 10.5375 11.0353 10.2369L12.2209 5.88967L6.05124 12.5Z"></path>
</symbol>
<symbol viewBox="0 0 24 24" id="calendar">
<path fill-rule="evenodd" clip-rule="evenodd" d="M8 1C8.55228 1 9 1.44772 9 2V3H15V2C15 1.44772 15.4477 1 16 1C16.5523 1 17 1.44772 17 2V3H19C20.6569 3 22 4.34315 22 6V20C22 21.6569 20.6569 23 19 23H5C3.34315 23 2 21.6569 2 20V6C2 4.34315 3.34315 3 5 3H7V2C7 1.44772 7.44772 1 8 1ZM7 5H5C4.44772 5 4 5.44772 4 6V9H20V6C20 5.44771 19.5523 5 19 5H17V6C17 6.55228 16.5523 7 16 7C15.4477 7 15 6.55228 15 6V5H9V6C9 6.55228 8.55228 7 8 7C7.44772 7 7 6.55228 7 6V5ZM20 11H4V20C4 20.5523 4.44771 21 5 21H19C19.5523 21 20 20.5523 20 20V11Z"></path>
</symbol>
<symbol viewBox="0 0 24 24" id="check">
<path fill-rule="evenodd" clip-rule="evenodd" d="M21.0607 4.93934C21.6464 5.52513 21.6464 6.47487 21.0607 7.06066L10.0607 18.0607C9.47487 18.6464 8.52513 18.6464 7.93934 18.0607L2.93934 13.0607C2.35355 12.4749 2.35355 11.5251 2.93934 10.9393C3.52513 10.3536 4.47487 10.3536 5.06066 10.9393L9 14.8787L18.9393 4.93934C19.5251 4.35355 20.4749 4.35355 21.0607 4.93934Z"></path>
</symbol>
<symbol viewBox="0 0 24 24" id="chevron-down">
<path fill-rule="evenodd" clip-rule="evenodd" d="M3.79289 7.54289C4.18342 7.15237 4.81658 7.15237 5.20711 7.54289L12 14.3358L18.7929 7.54289C19.1834 7.15237 19.8166 7.15237 20.2071 7.54289C20.5976 7.93342 20.5976 8.56658 20.2071 8.95711L12.7071 16.4571C12.3166 16.8476 11.6834 16.8476 11.2929 16.4571L3.79289 8.95711C3.40237 8.56658 3.40237 7.93342 3.79289 7.54289Z"></path>
</symbol>
<symbol viewBox="0 0 24 24" id="chevron-left">
<path fill-rule="evenodd" clip-rule="evenodd" d="M15.5303 5.46967C15.8232 5.76256 15.8232 6.23744 15.5303 6.53033L10.0607 12L15.5303 17.4697C15.8232 17.7626 15.8232 18.2374 15.5303 18.5303C15.2374 18.8232 14.7626 18.8232 14.4697 18.5303L8.46967 12.5303C8.17678 12.2374 8.17678 11.7626 8.46967 11.4697L14.4697 5.46967C14.7626 5.17678 15.2374 5.17678 15.5303 5.46967Z"></path>
</symbol>
<symbol viewBox="0 0 24 24" id="chevron-right">
<path fill-rule="evenodd" clip-rule="evenodd" d="M8.46967 5.46967C8.76256 5.17678 9.23744 5.17678 9.53033 5.46967L15.5303 11.4697C15.8232 11.7626 15.8232 12.2374 15.5303 12.5303L9.53033 18.5303C9.23744 18.8232 8.76256 18.8232 8.46967 18.5303C8.17678 18.2374 8.17678 17.7626 8.46967 17.4697L13.9393 12L8.46967 6.53033C8.17678 6.23744 8.17678 5.76256 8.46967 5.46967Z"></path>
</symbol>
<symbol viewBox="0 0 24 24" id="chevron-up">
<path fill-rule="evenodd" clip-rule="evenodd" d="M11.2929 7.54289C11.6834 7.15237 12.3166 7.15237 12.7071 7.54289L20.2071 15.0429C20.5976 15.4334 20.5976 16.0666 20.2071 16.4571C19.8166 16.8476 19.1834 16.8476 18.7929 16.4571L12 9.66421L5.20711 16.4571C4.81658 16.8476 4.18342 16.8476 3.79289 16.4571C3.40237 16.0666 3.40237 15.4334 3.79289 15.0429L11.2929 7.54289Z"></path>
</symbol>
<symbol viewBox="0 0 24 24" id="close">
<g opacity="0.7">
<path fill-rule="evenodd" clip-rule="evenodd" d="M5.29289 5.29289C5.68342 4.90237 6.31658 4.90237 6.70711 5.29289L12 10.5858L17.2929 5.29289C17.6834 4.90237 18.3166 4.90237 18.7071 5.29289C19.0976 5.68342 19.0976 6.31658 18.7071 6.70711L13.4142 12L18.7071 17.2929C19.0976 17.6834 19.0976 18.3166 18.7071 18.7071C18.3166 19.0976 17.6834 19.0976 17.2929 18.7071L12 13.4142L6.70711 18.7071C6.31658 19.0976 5.68342 19.0976 5.29289 18.7071C4.90237 18.3166 4.90237 17.6834 5.29289 17.2929L10.5858 12L5.29289 6.70711C4.90237 6.31658 4.90237 5.68342 5.29289 5.29289Z"></path>
</g>
</symbol>
<symbol viewBox="0 0 24 24" id="eye">
<path fill-rule="evenodd" clip-rule="evenodd" d="M2.8308 12C2.9193 12.1752 3.04942 12.4192 3.22259 12.7101C3.59325 13.3328 4.15645 14.1624 4.9246 14.9897C6.46133 16.6446 8.77611 18.25 12 18.25C15.2239 18.25 17.5387 16.6446 19.0754 14.9897C19.8435 14.1624 20.4067 13.3328 20.7774 12.7101C20.9506 12.4192 21.0807 12.1752 21.1692 12C21.0807 11.8248 20.9506 11.5808 20.7774 11.2899C20.4067 10.6672 19.8435 9.83757 19.0754 9.01034C17.5387 7.3554 15.2239 5.75 12 5.75C8.77611 5.75 6.46133 7.3554 4.9246 9.01034C4.15645 9.83757 3.59325 10.6672 3.22259 11.2899C3.04942 11.5808 2.9193 11.8248 2.8308 12ZM22 12C22.6894 11.7046 22.6892 11.7042 22.6891 11.7039L22.6887 11.7031L22.6878 11.701L22.6852 11.6949L22.6765 11.6752C22.6692 11.6588 22.6588 11.6358 22.6455 11.6069C22.6187 11.549 22.5797 11.4668 22.5282 11.3638C22.4253 11.1579 22.2721 10.8682 22.0663 10.5226C21.6558 9.83284 21.0315 8.91243 20.1746 7.98966C18.4613 6.1446 15.7761 4.25 12 4.25C8.22389 4.25 5.53867 6.1446 3.8254 7.98966C2.96855 8.91243 2.34425 9.83284 1.93366 10.5226C1.72794 10.8682 1.57469 11.1579 1.47176 11.3638C1.42026 11.4668 1.38127 11.549 1.35453 11.6069C1.34115 11.6358 1.33083 11.6588 1.32353 11.6752L1.31483 11.6949L1.31218 11.701L1.31127 11.7031L1.31092 11.7039C1.31077 11.7042 1.31064 11.7046 2 12L1.31064 11.7046C1.22979 11.8932 1.22979 12.1068 1.31064 12.2954L2 12C1.31064 12.2954 1.31077 12.2958 1.31092 12.2961L1.31127 12.2969L1.31218 12.299L1.31483 12.3051L1.32353 12.3248C1.33083 12.3412 1.34115 12.3642 1.35453 12.3931C1.38127 12.451 1.42026 12.5332 1.47176 12.6362C1.57469 12.8421 1.72794 13.1318 1.93366 13.4774C2.34425 14.1672 2.96855 15.0876 3.8254 16.0103C5.53867 17.8554 8.22389 19.75 12 19.75C15.7761 19.75 18.4613 17.8554 20.1746 16.0103C21.0315 15.0876 21.6558 14.1672 22.0663 13.4774C22.2721 13.1318 22.4253 12.8421 22.5282 12.6362C22.5797 12.5332 22.6187 12.451 22.6455 12.3931C22.6588 12.3642 22.6692 12.3412 22.6765 12.3248L22.6852 12.3051L22.6878 12.299L22.6887 12.2969L22.6891 12.2961C22.6892 12.2958 22.6894 12.2954 22 12ZM22 12L22.6894 12.2954C22.7702 12.1068 22.7702 11.8932 22.6894 11.7046L22 12ZM12 9.75C10.7574 9.75 9.75 10.7574 9.75 12C9.75 13.2426 10.7574 14.25 12 14.25C13.2426 14.25 14.25 13.2426 14.25 12C14.25 10.7574 13.2426 9.75 12 9.75ZM8.25 12C8.25 9.92893 9.92893 8.25 12 8.25C14.0711 8.25 15.75 9.92893 15.75 12C15.75 14.0711 14.0711 15.75 12 15.75C9.92893 15.75 8.25 14.0711 8.25 12Z"></path>
</symbol>
<symbol viewBox="0 0 24 24" id="github">
<path d="M22.3901 6.27021C21.3171 4.43164 19.8615 2.97604 18.0231 1.90308C16.1844 0.83007 14.1771 0.293701 11.9998 0.293701C9.82276 0.293701 7.81481 0.830234 5.97651 1.90308C4.13794 2.97598 2.68245 4.43164 1.60938 6.27021C0.536478 8.10873 0 10.1164 0 12.2932C0 14.908 0.762879 17.2593 2.28902 19.3477C3.815 21.4362 5.78634 22.8814 8.20287 23.6835C8.48416 23.7357 8.69239 23.6989 8.82778 23.5742C8.96323 23.4493 9.03087 23.2929 9.03087 23.1057C9.03087 23.0744 9.02819 22.7933 9.02299 22.2619C9.01806 21.7985 9.01543 21.335 9.01511 20.8716L8.65573 20.9337C8.42659 20.9757 8.13753 20.9935 7.78854 20.9885C7.43972 20.9836 7.07759 20.947 6.70267 20.8791C6.32758 20.8117 5.9787 20.6555 5.65576 20.4107C5.33299 20.1659 5.10385 19.8455 4.9684 19.4499L4.81216 19.0904C4.70802 18.851 4.54406 18.5851 4.32006 18.2936C4.09607 18.0019 3.86956 17.8041 3.64042 17.6999L3.53103 17.6216C3.45813 17.5696 3.39049 17.5068 3.32794 17.434C3.26544 17.3611 3.21865 17.2882 3.1874 17.2152C3.1561 17.1422 3.18204 17.0822 3.2655 17.0352C3.34895 16.9882 3.49978 16.9654 3.71863 16.9654L4.031 17.0121C4.23934 17.0538 4.49705 17.1786 4.80444 17.387C5.11168 17.5953 5.36424 17.8661 5.56218 18.1993C5.80188 18.6264 6.09067 18.952 6.42937 19.176C6.76779 19.3999 7.10901 19.5117 7.45269 19.5117C7.79637 19.5117 8.0932 19.4857 8.3433 19.4339C8.59312 19.3818 8.82751 19.3035 9.04636 19.1994C9.1401 18.5012 9.39535 17.9648 9.81187 17.5899C9.2182 17.5275 8.68446 17.4335 8.21037 17.3086C7.73655 17.1835 7.24692 16.9805 6.7418 16.6989C6.2364 16.4178 5.81715 16.0687 5.48392 15.6523C5.15064 15.2356 4.87712 14.6885 4.66374 14.0116C4.45026 13.3345 4.34349 12.5533 4.34349 11.6679C4.34349 10.4073 4.75503 9.33459 5.57794 8.44912C5.19245 7.50138 5.22884 6.43893 5.68723 5.26188C5.98931 5.16803 6.4373 5.23846 7.03097 5.47274C7.62474 5.70713 8.05949 5.90792 8.33563 6.0744C8.61178 6.24082 8.83304 6.38185 8.99973 6.49623C9.96866 6.2255 10.9686 6.09011 11.9997 6.09011C13.0308 6.09011 14.031 6.2255 14.9999 6.49623L15.5937 6.12141C15.9997 5.87131 16.4791 5.64212 17.0309 5.43378C17.5829 5.22555 18.0051 5.16819 18.2969 5.26205C18.7655 6.43915 18.8072 7.50154 18.4216 8.44929C19.2445 9.33475 19.6562 10.4078 19.6562 11.6681C19.6562 12.5535 19.549 13.3371 19.3359 14.0195C19.1224 14.7019 18.8466 15.2484 18.5081 15.6601C18.1693 16.0717 17.7474 16.418 17.2423 16.6991C16.737 16.9804 16.2473 17.1834 15.7734 17.3085C15.2994 17.4336 14.7657 17.5277 14.172 17.5902C14.7134 18.0587 14.9842 18.7983 14.9842 19.8087V23.1052C14.9842 23.2925 15.0494 23.4488 15.1797 23.5738C15.3099 23.6985 15.5155 23.7352 15.7968 23.683C18.2137 22.8811 20.185 21.4358 21.7109 19.3472C23.2367 17.2588 23.9998 14.9075 23.9998 12.2927C23.9993 10.1162 23.4625 8.10873 22.3901 6.27021Z"></path>
</symbol>
<symbol viewBox="0 0 24 24" id="mail">
<path fill-rule="evenodd" clip-rule="evenodd" d="M4.00013 5C3.44784 5 3.00013 5.44772 3.00013 6V6.45063L11.5033 11.854C11.6524 11.9468 11.8245 11.996 12.0001 11.996C12.1758 11.996 12.3479 11.9468 12.497 11.854C12.4977 11.8535 12.4985 11.853 12.4992 11.8526L21.0001 6.45063V6C21.0001 5.44771 20.5524 5 20.0001 5H4.00013ZM23.0001 6.98317V6C23.0001 4.34315 21.657 3 20.0001 3H4.00013C2.34327 3 1.00013 4.34315 1.00013 6V6.98313C0.999958 6.99375 0.999958 7.00437 1.00013 7.01499V18C1.00013 19.6569 2.34327 21 4.00013 21H20.0001C21.657 21 23.0001 19.6569 23.0001 18V7.01495C23.0003 7.00436 23.0003 6.99377 23.0001 6.98317ZM21.0001 8.82027L13.5611 13.5474C13.0932 13.8406 12.5522 13.996 12.0001 13.996C11.448 13.996 10.9071 13.8405 10.4392 13.5474L10.4338 13.544L3.00013 8.82027V18C3.00013 18.5523 3.44784 19 4.00013 19H20.0001C20.5524 19 21.0001 18.5523 21.0001 18V8.82027Z"></path>
</symbol>
<symbol viewBox="0 0 24 24" id="plus">
<path fill-rule="evenodd" clip-rule="evenodd" d="M12 3.5C12.8284 3.5 13.5 4.17157 13.5 5V10.5H19C19.8284 10.5 20.5 11.1716 20.5 12C20.5 12.8284 19.8284 13.5 19 13.5H13.5V19C13.5 19.8284 12.8284 20.5 12 20.5C11.1716 20.5 10.5 19.8284 10.5 19V13.5H5C4.17157 13.5 3.5 12.8284 3.5 12C3.5 11.1716 4.17157 10.5 5 10.5H10.5V5C10.5 4.17157 11.1716 3.5 12 3.5Z"></path>
</symbol>
<symbol viewBox="0 0 24 24" id="slash">
<g clip-path="url(#clip0_65_640)">
<path fill-rule="evenodd" clip-rule="evenodd" d="M23.2126 0.787816C23.8821 1.45729 23.8821 2.54271 23.2126 3.21218L3.2126 23.2122C2.54313 23.8817 1.45771 23.8817 0.788235 23.2122C0.118765 22.5427 0.118765 21.4573 0.788235 20.7878L20.7882 0.787816C21.4577 0.118346 22.5431 0.118346 23.2126 0.787816Z"></path>
</g>
<defs>
<clipPath id="clip0_65_640">
<rect width="24" height="24" fill="white"></rect>
</clipPath>
</defs>
</symbol>
<symbol viewBox="0 0 24 24" id="trash">
<path fill-rule="evenodd" clip-rule="evenodd" d="M9.33211 3.33211C9.09745 3.56676 9 3.82523 9 4V5H15V4C15 3.82523 14.9025 3.56676 14.6679 3.33211C14.4332 3.09745 14.1748 3 14 3H10C9.82523 3 9.56676 3.09745 9.33211 3.33211ZM17 5V4C17 3.17477 16.5975 2.43324 16.0821 1.91789C15.5668 1.40255 14.8252 1 14 1H10C9.17477 1 8.43324 1.40255 7.91789 1.91789C7.40255 2.43324 7 3.17477 7 4V5H3C2.44772 5 2 5.44772 2 6C2 6.55228 2.44772 7 3 7H4V20C4 20.8252 4.40255 21.5668 4.91789 22.0821C5.43324 22.5975 6.17477 23 7 23H17C17.8252 23 18.5668 22.5975 19.0821 22.0821C19.5975 21.5668 20 20.8252 20 20V7H21C21.5523 7 22 6.55228 22 6C22 5.44772 21.5523 5 21 5H17ZM6 7V20C6 20.1748 6.09745 20.4332 6.33211 20.6679C6.56676 20.9025 6.82523 21 7 21H17C17.1748 21 17.4332 20.9025 17.6679 20.6679C17.9025 20.4332 18 20.1748 18 20V7H6ZM10 10C10.5523 10 11 10.4477 11 11V17C11 17.5523 10.5523 18 10 18C9.44772 18 9 17.5523 9 17V11C9 10.4477 9.44772 10 10 10ZM14 10C14.5523 10 15 10.4477 15 11V17C15 17.5523 14.5523 18 14 18C13.4477 18 13 17.5523 13 17V11C13 10.4477 13.4477 10 14 10Z"></path>
</symbol>
</defs>
</svg>
