<svg width="24" height="24" viewBox="0 0 24 24" fill="none" xmlns="http://www.w3.org/2000/svg">
<path fill-rule="evenodd" clip-rule="evenodd" d="M14.737 1.37654C15.1386 1.60046 15.3358 2.06944 15.2148 2.51309L13.3093 9.49997H20.25C20.6482 9.49997 21.0085 9.73622 21.1672 10.1014C21.3259 10.4666 21.2528 10.8912 20.9811 11.1823L10.4811 22.4323C10.1673 22.7685 9.66472 22.8473 9.26308 22.6234C8.86143 22.3995 8.66426 21.9305 8.78526 21.4869L10.6908 14.5H3.75002C3.35183 14.5 2.99158 14.2637 2.83287 13.8985C2.67417 13.5333 2.74727 13.1088 3.01897 12.8177L13.519 1.56765C13.8327 1.23148 14.3353 1.15262 14.737 1.37654ZM6.05124 12.5H12C12.3117 12.5 12.6055 12.6453 12.7947 12.893C12.9839 13.1407 13.0468 13.4624 12.9648 13.7631L11.7792 18.1103L17.9488 11.5H12C11.6883 11.5 11.3945 11.3547 11.2053 11.107C11.0161 10.8593 10.9533 10.5375 11.0353 10.2369L12.2209 5.88967L6.05124 12.5Z" fill="black"/>
</svg>
