<svg width="348" height="61" viewBox="0 0 348 61" fill="none" xmlns="http://www.w3.org/2000/svg">
<path d="M289.24 45.4919V13.412H304.542C306.427 13.412 310.16 15.0247 311.682 16.1907C318.352 21.3013 318.973 33.2793 314.317 39.8588C308.623 47.8997 297.69 44.9014 289.24 45.4919ZM296.206 39.7983H302.854C303.808 39.7983 306.071 38.7307 306.859 38.1023C311.364 34.5286 311.364 23.5803 306.405 20.4155C305.769 20.0142 303.739 19.1132 303.066 19.1132H296.206V39.7983Z" fill="#D54B40"/>
<path d="M83.7551 13.412C84.5804 13.5028 86.1629 14.0707 86.9578 14.4341C94.7488 18.0002 94.3854 29.5996 86.1704 32.3253L93.5752 45.4995H86.0796L79.6439 33.6806H75.4266V45.4995H68.4609V13.412H83.7627H83.7551ZM75.419 28.1913H82.2787C82.4302 28.1913 83.3236 27.7067 83.5507 27.5629C86.3673 25.8669 86.3673 21.2181 83.5507 19.5296C83.3236 19.3934 82.4302 18.9012 82.2787 18.9012H75.419V28.1837V28.1913Z" fill="#D54B40"/>
<path d="M327.069 13.412V28.3957L338.994 13.412H346.906L335.716 27.0102L347.754 45.4919H339.842L330.976 32.2042L327.069 36.5274V45.4919H320.104V13.412H327.069Z" fill="#D54B40"/>
<path d="M151.974 22.3311L156.092 37.9508L159.984 22.4295L166.306 22.3538L170.311 37.4436L170.758 37.7388L174.877 22.3311H181.101L173.408 45.7721L167.2 45.7342L163.058 30.9852L158.932 45.7494L152.42 45.7418L145.008 22.3311H151.974Z" fill="#D54B40"/>
<path d="M259.192 13.412V45.4919H252.862L252.65 43.3795C247.509 48.1041 239.272 46.5141 236.432 40.0784C234.418 35.5204 234.676 28.9257 237.985 25.0189C241.293 21.1121 248.463 20.0521 252.446 23.7545V13.412H259.2H259.192ZM246.48 26.7679C241.392 27.5023 240.794 35.5431 243.269 38.9427C245.223 41.623 250.303 41.4261 252.393 39.0184L252.431 28.7289C251.34 26.7906 248.524 26.4802 246.48 26.7755V26.7679Z" fill="#D54B40"/>
<path d="M142.553 13.4119V45.4919H136.435L136.223 43.3795L133.058 45.3783C121.974 49.1565 116 37.5041 119.604 28.1231C122.072 21.7026 130.506 19.1132 135.806 23.7469V13.4044H142.56L142.553 13.4119ZM135.753 39.3288L135.693 28.1837C133.058 26.0562 128.553 25.9426 126.547 28.956C125.138 31.0684 125.093 35.1494 125.986 37.4662C127.607 41.6911 132.475 41.6532 135.753 39.3288Z" fill="#D54B40"/>
<path d="M284.298 20.3777C280.724 19.0905 275.424 17.5762 271.737 18.8937C268.754 19.9537 268.784 23.2169 271.32 24.8145C275.659 27.5553 283.51 26.4045 285.464 33.249C288.947 45.4844 274.591 48.0284 265.831 45.0755C265.172 44.8484 262.946 43.9398 262.568 43.4855C261.917 42.6981 262.893 38.8897 262.78 37.6859C263.817 38.178 264.809 38.708 265.892 39.1093C268.814 40.1996 273.001 40.9491 276.03 40.0633C279.058 39.1774 279.868 35.6946 276.984 33.9229C271.653 30.6596 262.984 32.1285 262.363 23.0049C261.538 10.9437 277.203 11.2466 284.85 14.8733L284.305 20.3701L284.298 20.3777Z" fill="#D54B40"/>
<path d="M100.682 35.9974C101.81 42.7284 111.002 41.2444 115.348 38.7458L114.924 44.0231C107.86 47.8996 96.4953 46.9305 94.4131 37.7388C92.1417 27.7067 98.4336 19.0602 109.17 21.9297C112.804 22.8989 116.302 26.7679 116.302 30.6293V35.6945L115.984 36.0125H100.682V35.9974ZM109.965 31.7726C110.578 24.822 100.273 24.8902 100.682 31.7726H109.965Z" fill="#D54B40"/>
<path d="M219.176 21.4982C229.246 20.5442 234.524 28.1989 232.373 37.648C229.625 49.7244 209.788 48.9521 208.667 35.6794C208.046 28.2822 211.34 22.2402 219.176 21.4982ZM220.236 26.5559C215.512 26.8966 215.118 31.6666 215.413 35.475C216.004 42.9858 225.173 42.7587 225.953 36.0807C226.46 31.7499 225.824 26.1546 220.236 26.5635V26.5559Z" fill="#D54B40"/>
<path d="M192.608 21.4982C202.791 20.4534 208.372 28.5699 205.79 38.0569C202.701 49.3988 184.491 48.9067 182.371 36.6713C181.062 29.1226 184.567 22.3159 192.608 21.4907V21.4982ZM193.66 26.5559C188.451 27.0329 188.027 34.1046 189.534 37.9509C191.192 42.1757 197.446 42.0773 199.021 37.8297C200.596 33.5822 199.778 25.9956 193.66 26.5559Z" fill="#D54B40"/>
<g clip-path="url(#clip0_709_6170)">
<path d="M14.5039 9.36251L26.2737 17.2846L38.3903 9.5959L26.2737 1.6738L14.5039 9.36251Z" fill="#F3B15C"/>
<path d="M14.0391 50.6068L26.509 42.4513L38.6256 50.7269L26.3957 58.8824L14.0391 50.6068Z" fill="#F3B15C"/>
<path d="M1.57324 17.6314L13.343 25.7935L7.16806 29.868L13.4564 34.5292L1.33984 42.4513L1.57324 17.6314Z" fill="#D54B40"/>
<path d="M39.9014 25.5602L51.2044 17.6314V42.4513L39.0879 33.9491L45.9097 29.7946L39.9014 25.5602Z" fill="#D54B40"/>
<path d="M26.2734 17.2846L38.39 9.59589L51.2067 17.6314L39.9037 25.5601L26.2734 17.2846Z" fill="#E47947"/>
<path d="M1.57422 17.6314L14.5043 9.36252L26.2741 17.2846L13.344 25.7935L1.57422 17.6314Z" fill="#E47947"/>
<path d="M1.33984 42.4513L13.4564 34.5292L26.5065 42.4513L14.0366 50.6068L1.33984 42.4513Z" fill="#E47947"/>
<path d="M39.0912 33.949L51.2077 42.4513L38.6244 50.7268L26.5078 42.4513L39.0912 33.949Z" fill="#E47947"/>
<path d="M26.2731 17.2846L45.9116 29.7946L26.5064 42.4513L7.16797 29.868L26.2731 17.2846Z" fill="#802C43"/>
<path d="M26.327 60.4694L0 43.3782V16.7844L26.327 -3.05176e-05L52.5073 16.7844V43.3715L26.327 60.4627V60.4694ZM2.66738 41.9311L26.327 57.2885L49.8399 41.9311V18.2448L26.327 3.16748L2.66738 18.2448V41.9311Z" fill="#FFF3DF"/>
<path d="M50.3868 16.4401L38.8398 24.916L40.4182 27.0662L51.9651 18.5904L50.3868 16.4401Z" fill="#FFF3DF"/>
<path d="M38.171 51.8138L4.58203 30.088L38.0243 8.35559L39.478 10.5962L9.49 30.0814L39.6247 49.5732L38.171 51.8138Z" fill="#FFF3DF"/>
<path d="M14.4897 51.9538L13.0293 49.7199L43.4574 29.8079L13.1827 10.4561L14.6231 8.20886L48.3654 29.7813L14.4897 51.9538Z" fill="#FFF3DF"/>
<path d="M2.07329 16.3993L0.587891 18.6148L13.0114 26.9441L14.4968 24.7286L2.07329 16.3993Z" fill="#FFF3DF"/>
<path d="M13.1924 33.4897L0.621094 41.5325L2.05859 43.7794L14.6299 35.7366L13.1924 33.4897Z" fill="#FFF3DF"/>
<path d="M39.8147 32.941L38.2695 35.1153L50.4019 43.7373L51.947 41.563L39.8147 32.941Z" fill="#FFF3DF"/>
</g>
<defs>
<clipPath id="clip0_709_6170">
<rect width="52.5073" height="60.4694" fill="white"/>
</clipPath>
</defs>
</svg>
