<?xml version="1.0" encoding="UTF-8"?>
<!-- This file is generated by npm run icons -->
<svg xmlns="http://www.w3.org/2000/svg" xmlns:xlink="http://www.w3.org/1999/xlink" width="0" height="0">
<defs>
<symbol viewBox="0 0 24 24" id="arrow">
<path d="M16.7197 7.71973C17.0126 7.42684 17.4874 7.42684 17.7803 7.71973L21.5303 11.4697C21.8232 11.7626 21.8232 12.2374 21.5303 12.5303L17.7803 16.2803C17.4874 16.5732 17.0126 16.5732 16.7197 16.2803C16.4268 15.9874 16.4268 15.5126 16.7197 15.2197L19.1895 12.75H3C2.58579 12.75 2.25 12.4142 2.25 12C2.25 11.5858 2.58579 11.25 3 11.25H19.1895L16.7197 8.78028C16.4268 8.48738 16.4268 8.01262 16.7197 7.71973Z"></path>
</symbol>
<symbol viewBox="0 0 24 25" id="discord">
<path d="M19.2701 5.83C17.9401 5.21 16.5001 4.76 15.0001 4.5C14.9737 4.50038 14.9486 4.51116 14.9301 4.53C14.7501 4.86 14.5401 5.29 14.4001 5.62C12.8091 5.38015 11.1911 5.38015 9.60012 5.62C9.46012 5.28 9.25012 4.86 9.06012 4.53C9.05012 4.51 9.02012 4.5 8.99012 4.5C7.49012 4.76 6.06012 5.21 4.72012 5.83C4.71012 5.83 4.70012 5.84 4.69012 5.85C1.97012 9.92 1.22012 13.88 1.59012 17.8C1.59012 17.82 1.60012 17.84 1.62012 17.85C3.42012 19.17 5.15012 19.97 6.86012 20.5C6.89012 20.51 6.92012 20.5 6.93012 20.48C7.33012 19.93 7.69012 19.35 8.00012 18.74C8.02012 18.7 8.00012 18.66 7.96012 18.65C7.39012 18.43 6.85012 18.17 6.32012 17.87C6.28012 17.85 6.28012 17.79 6.31012 17.76C6.42012 17.68 6.53012 17.59 6.64012 17.51C6.66012 17.49 6.69012 17.49 6.71012 17.5C10.1501 19.07 13.8601 19.07 17.2601 17.5C17.2801 17.49 17.3101 17.49 17.3301 17.51C17.4401 17.6 17.5501 17.68 17.6601 17.77C17.7001 17.8 17.7001 17.86 17.6501 17.88C17.1301 18.19 16.5801 18.44 16.0101 18.66C15.9701 18.67 15.9601 18.72 15.9701 18.75C16.2901 19.36 16.6501 19.94 17.0401 20.49C17.0701 20.5 17.1001 20.51 17.1301 20.5C18.8501 19.97 20.5801 19.17 22.3801 17.85C22.4001 17.84 22.4101 17.82 22.4101 17.8C22.8501 13.27 21.6801 9.34 19.3101 5.85C19.3001 5.84 19.2901 5.83 19.2701 5.83ZM8.52012 15.41C7.49012 15.41 6.63012 14.46 6.63012 13.29C6.63012 12.12 7.47012 11.17 8.52012 11.17C9.58012 11.17 10.4201 12.13 10.4101 13.29C10.4101 14.46 9.57012 15.41 8.52012 15.41ZM15.4901 15.41C14.4601 15.41 13.6001 14.46 13.6001 13.29C13.6001 12.12 14.4401 11.17 15.4901 11.17C16.5501 11.17 17.3901 12.13 17.3801 13.29C17.3801 14.46 16.5501 15.41 15.4901 15.41Z"></path>
</symbol>
<symbol viewBox="0 0 24 25" id="github">
<path d="M12 2.5C10.6868 2.5 9.38642 2.75866 8.17317 3.2612C6.95991 3.76375 5.85752 4.50035 4.92893 5.42893C3.05357 7.3043 2 9.84784 2 12.5C2 16.92 4.87 20.67 8.84 22C9.34 22.08 9.5 21.77 9.5 21.5V19.81C6.73 20.41 6.14 18.47 6.14 18.47C5.68 17.31 5.03 17 5.03 17C4.12 16.38 5.1 16.4 5.1 16.4C6.1 16.47 6.63 17.43 6.63 17.43C7.5 18.95 8.97 18.5 9.54 18.26C9.63 17.61 9.89 17.17 10.17 16.92C7.95 16.67 5.62 15.81 5.62 12C5.62 10.89 6 10 6.65 9.29C6.55 9.04 6.2 8 6.75 6.65C6.75 6.65 7.59 6.38 9.5 7.67C10.29 7.45 11.15 7.34 12 7.34C12.85 7.34 13.71 7.45 14.5 7.67C16.41 6.38 17.25 6.65 17.25 6.65C17.8 8 17.45 9.04 17.35 9.29C18 10 18.38 10.89 18.38 12C18.38 15.82 16.04 16.66 13.81 16.91C14.17 17.22 14.5 17.83 14.5 18.76V21.5C14.5 21.77 14.66 22.09 15.17 22C19.14 20.66 22 16.92 22 12.5C22 11.1868 21.7413 9.88642 21.2388 8.67317C20.7362 7.45991 19.9997 6.35752 19.0711 5.42893C18.1425 4.50035 17.0401 3.76375 15.8268 3.2612C14.6136 2.75866 13.3132 2.5 12 2.5Z"></path>
</symbol>
<symbol viewBox="0 0 24 24" id="globe">
<path d="M12.3232 2.25488C13.9403 2.30791 15.521 2.7632 16.9209 3.58106C18.4135 4.45311 19.6466 5.70685 20.4951 7.21289H20.4961C21.3204 8.67338 21.7525 10.3229 21.75 12C21.75 12.8418 21.6428 13.6594 21.4424 14.4395V14.4414C20.9006 16.5335 19.6786 18.3861 17.9697 19.709C16.3676 20.9491 14.422 21.6574 12.4043 21.7412L12 21.75C9.83891 21.7499 7.73921 21.0318 6.03028 19.709C4.32139 18.3861 3.09939 16.5335 2.55762 14.4414V14.4395C2.35268 13.6423 2.24927 12.8221 2.25 11.999C2.25017 10.262 2.70506 8.62741 3.50391 7.21289C4.35244 5.70666 5.58641 4.45319 7.07911 3.58106C8.57218 2.70878 10.2708 2.24934 12 2.25L12.3232 2.25488ZM9.06055 17.0195C9.19124 17.3802 9.33402 17.7178 9.48926 18.0283C10.2638 19.5773 11.1947 20.25 12 20.25C12.8053 20.25 13.7362 19.5773 14.5107 18.0283C14.6657 17.7184 14.808 17.3814 14.9385 17.0215C13.9699 17.1744 12.9874 17.2505 12 17.249V17.25C11 17.25 10.0184 17.1704 9.06055 17.0195ZM4.65235 15.7529C5.20162 16.8272 5.98257 17.7749 6.94825 18.5225C7.46628 18.9235 8.02708 19.2582 8.61719 19.5234C8.44811 19.2619 8.29085 18.986 8.14746 18.6992C7.8438 18.0919 7.58444 17.4101 7.37305 16.6719C6.43604 16.434 5.52732 16.126 4.65235 15.7529ZM19.3467 15.7529C18.4633 16.1294 17.5541 16.438 16.626 16.6738C16.4147 17.4112 16.1559 18.0925 15.8525 18.6992C15.7091 18.9861 15.551 19.2618 15.3818 19.5234C15.9723 19.2581 16.5335 18.9237 17.0518 18.5225C18.0173 17.775 18.7974 16.8271 19.3467 15.7529ZM6.75 12C6.75 11.3725 6.78045 10.7572 6.83985 10.1602C5.97708 9.77775 5.1652 9.30245 4.41602 8.74707C3.98756 9.74461 3.75 10.8441 3.75 12V12.001C3.7495 12.5896 3.81251 13.1762 3.93653 13.751C4.90611 14.2647 5.92991 14.6886 6.99805 15.0117C6.83703 14.0602 6.75 13.0473 6.75 12ZM12 3.75C11.1947 3.75 10.2638 4.42266 9.48926 5.97168C9.04826 6.85368 8.69831 7.95098 8.48438 9.19043C9.59032 9.55395 10.7722 9.75 12 9.75H12.001C13.2039 9.75173 14.3887 9.55812 15.5137 9.18848C15.2997 7.94994 14.9515 6.85315 14.5107 5.97168C13.7362 4.42266 12.8053 3.75 12 3.75ZM8.61914 4.47363C8.35197 4.59356 8.09025 4.72741 7.83594 4.87598C6.75425 5.50794 5.83382 6.37711 5.14063 7.41406C5.73814 7.87465 6.38242 8.2769 7.06641 8.61133C7.30628 7.37149 7.67467 6.24638 8.14746 5.30078C8.29139 5.01294 8.44933 4.73603 8.61914 4.47363ZM15.3799 4.47363C15.5498 4.73616 15.7085 5.01277 15.8525 5.30078C16.3253 6.24633 16.6928 7.37156 16.9326 8.61133C17.6106 8.28021 18.256 7.87966 18.8594 7.41406C18.1662 6.37711 17.2458 5.50793 16.1641 4.87598C15.9095 4.72726 15.6473 4.59366 15.3799 4.47363ZM8.25 12C8.25 13.223 8.37795 14.377 8.60254 15.4141C9.70082 15.6334 10.8366 15.75 12 15.75H12.001C13.1456 15.7518 14.2827 15.6369 15.3965 15.4141C15.6211 14.3769 15.75 13.223 15.75 12C15.75 11.5569 15.7331 11.1229 15.7012 10.7002C14.51 11.0613 13.2642 11.2507 12 11.249V11.25C10.7124 11.25 9.46999 11.0555 8.29786 10.7002C8.26591 11.1229 8.25 11.557 8.25 12ZM17.25 12C17.25 13.0473 17.162 14.0602 17.001 15.0117C18.0566 14.6922 19.0814 14.2697 20.0625 13.75C20.184 13.1862 20.25 12.601 20.25 12V11.999C20.2518 10.8778 20.023 9.7716 19.583 8.74707C18.826 9.30862 18.0131 9.78109 17.1592 10.1592C17.2187 10.7566 17.25 11.3721 17.25 12Z"></path>
</symbol>
<symbol viewBox="0 0 24 24" id="install">
<path d="M2.25 18.75V16.5C2.25 16.0858 2.58579 15.75 3 15.75C3.41421 15.75 3.75 16.0858 3.75 16.5V18.75C3.75 19.1478 3.90815 19.5292 4.18945 19.8105C4.47076 20.0919 4.85218 20.25 5.25 20.25H18.75L18.8984 20.2422C19.2417 20.208 19.5645 20.0566 19.8105 19.8105C20.0919 19.5292 20.25 19.1478 20.25 18.75V16.5C20.25 16.0858 20.5858 15.75 21 15.75C21.4142 15.75 21.75 16.0858 21.75 16.5V18.75C21.75 19.5456 21.4337 20.3085 20.8711 20.8711C20.3085 21.4337 19.5456 21.75 18.75 21.75H5.25C4.45435 21.75 3.69152 21.4337 3.12891 20.8711C2.5663 20.3085 2.25 19.5456 2.25 18.75ZM11.25 3C11.25 2.58579 11.5858 2.25 12 2.25C12.4142 2.25 12.75 2.58579 12.75 3V14.6895L15.9697 11.4697C16.2626 11.1768 16.7374 11.1768 17.0303 11.4697C17.3232 11.7626 17.3232 12.2374 17.0303 12.5303L12.5303 17.0303C12.2374 17.3232 11.7626 17.3232 11.4697 17.0303L6.96973 12.5303C6.67683 12.2374 6.67683 11.7626 6.96973 11.4697C7.26262 11.1768 7.73738 11.1768 8.03027 11.4697L11.25 14.6895V3Z"></path>
</symbol>
<symbol viewBox="0 0 24 24" id="learn">
<path d="M11.7737 2.77818C11.9461 2.72339 12.1336 2.73242 12.301 2.80552C15.9986 4.42137 19.5261 6.40225 22.8303 8.71861C23.068 8.88524 23.1882 9.17473 23.1389 9.46079C23.0895 9.74667 22.8794 9.9781 22.5998 10.0555C21.9145 10.2452 21.2342 10.4486 20.5608 10.6659C20.7928 12.5946 20.935 14.5332 20.9826 16.4754C20.9902 16.7846 20.8071 17.0672 20.5217 17.1864C17.6871 18.3702 14.9732 19.8242 12.4172 21.5282C12.1654 21.696 11.8371 21.6959 11.5852 21.5282C10.0473 20.5028 8.45103 19.5693 6.80686 18.7293C6.48031 19.393 6.04868 20.0005 5.52366 20.5243C5.2304 20.8168 4.75563 20.8156 4.46311 20.5223C4.17061 20.2291 4.17085 19.7543 4.46409 19.4618C4.87204 19.0548 5.20741 18.5829 5.46116 18.0672C4.80795 17.7589 4.14774 17.465 3.48069 17.1864C3.19535 17.0672 3.01217 16.7846 3.01975 16.4754C3.06738 14.5336 3.20768 12.5952 3.43967 10.6668C2.76499 10.4492 2.08596 10.2452 1.40256 10.0565C1.12269 9.97923 0.911967 9.74787 0.862526 9.46177C0.813101 9.17565 0.933373 8.88628 1.17112 8.71958C4.47535 6.40289 8.00272 4.42171 11.7004 2.80552L11.7737 2.77818ZM19.1096 11.16C16.7878 11.9887 14.5294 12.988 12.3547 14.1502C12.1339 14.2683 11.8685 14.2682 11.6477 14.1502C10.2964 13.4281 8.9119 12.7711 7.5012 12.1766V12.952C7.61348 13.0169 7.71845 13.096 7.81174 13.1893C8.09293 13.4706 8.25115 13.8521 8.2512 14.2499C8.2512 14.6475 8.09287 15.0291 7.81174 15.3104C7.7186 15.4035 7.61327 15.4819 7.5012 15.5467V15.7489L7.49339 16.0809C7.47359 16.4939 7.41333 16.9032 7.31858 17.3045C8.92759 18.1186 10.4896 19.0236 12.0012 20.0096C14.3705 18.4643 16.8675 17.1252 19.466 16.0077C19.4126 14.3875 19.2947 12.7703 19.1096 11.16ZM4.89182 11.161C4.7068 12.7709 4.58881 14.3879 4.53538 16.0077C5.00177 16.2083 5.46529 16.415 5.92503 16.6297C5.97399 16.34 6.00162 16.0461 6.0012 15.7508V15.5467C5.88889 15.4818 5.78299 15.4037 5.68967 15.3104C5.4086 15.0291 5.2512 14.6475 5.2512 14.2499C5.25124 13.8522 5.40853 13.4706 5.68967 13.1893C5.78314 13.0958 5.88868 13.017 6.0012 12.952V11.5702C5.63327 11.429 5.26311 11.2935 4.89182 11.161ZM12.0002 4.31333C8.98369 5.65184 6.08465 7.23927 3.33421 9.0604C3.71976 9.17987 4.10388 9.30395 4.48655 9.43247C4.49404 9.43483 4.50164 9.43673 4.50901 9.43931C5.3272 9.71458 6.13694 10.0131 6.93967 10.329C8.4763 9.39967 10.0572 8.54532 11.676 7.76744C12.0493 7.58805 12.4976 7.74472 12.677 8.11802C12.8564 8.49137 12.6988 8.9396 12.3254 9.119C11.0845 9.71528 9.86701 10.3587 8.67503 11.0467C9.80203 11.5383 10.9106 12.0719 12.0002 12.6434C14.4123 11.3782 16.9212 10.3045 19.5032 9.43638C19.8889 9.30676 20.277 9.18144 20.6672 9.0604C17.9164 7.23928 15.0172 5.65169 12.0002 4.31333Z"></path>
</symbol>
</defs>
</svg>
