<svg width="449" height="71" viewBox="0 0 449 71" fill="none" xmlns="http://www.w3.org/2000/svg">
<g clip-path="url(#clip0_35_23)">
<path d="M448.463 58.7161H437.653L425.893 39.7994L421.869 42.6861V58.7161H412.35V13.8196H421.869V34.3639L425.615 29.0819L437.777 13.8196H448.341L432.679 33.6883L448.463 58.7161Z" fill="white"/>
<path d="M408.705 35.838C408.705 43.2286 406.596 48.8892 402.379 52.8201C398.182 56.7508 392.112 58.7161 384.168 58.7161H371.454V13.8196H385.55C392.879 13.8196 398.571 15.7543 402.624 19.6236C406.678 23.4929 408.705 28.8977 408.705 35.838ZM398.817 36.0837C398.817 26.441 394.558 21.6197 386.041 21.6197H380.975V50.8547H385.058C394.231 50.8547 398.817 45.9309 398.817 36.0837Z" fill="white"/>
<path d="M367.718 46.2482C367.718 50.3018 366.255 53.4955 363.327 55.8294C360.42 58.1634 356.366 59.3302 351.166 59.3302C346.375 59.3302 342.138 58.4294 338.452 56.6279V47.7837C341.482 49.1349 344.042 50.0868 346.129 50.6396C348.238 51.1924 350.163 51.4687 351.903 51.4687C353.992 51.4687 355.588 51.0695 356.693 50.271C357.819 49.4727 358.383 48.2852 358.383 46.7089C358.383 45.8286 358.137 45.0506 357.646 44.375C357.155 43.6789 356.428 43.0135 355.466 42.3789C354.524 41.7443 352.589 40.7308 349.661 39.3388C346.918 38.0489 344.86 36.8102 343.488 35.6229C342.117 34.4355 341.022 33.0537 340.204 31.4772C339.384 29.9008 338.975 28.0583 338.975 25.9496C338.975 21.9778 340.315 18.8557 342.997 16.5833C345.7 14.3109 349.426 13.1746 354.176 13.1746C356.509 13.1746 358.731 13.451 360.84 14.0038C362.969 14.5565 365.191 15.3345 367.503 16.3377L364.432 23.7385C362.037 22.7558 360.052 22.0699 358.475 21.6811C356.919 21.292 355.383 21.0975 353.868 21.0975C352.067 21.0975 350.685 21.5172 349.723 22.3567C348.761 23.196 348.279 24.2913 348.279 25.6425C348.279 26.4818 348.473 27.219 348.864 27.8536C349.253 28.4677 349.866 29.0717 350.706 29.6653C351.565 30.2386 353.582 31.2828 356.755 32.7977C360.952 34.804 363.83 36.8205 365.385 38.8473C366.941 40.8537 367.718 43.3206 367.718 46.2482Z" fill="white"/>
<path d="M314.696 59.3305C310.662 59.3305 307.489 57.7643 305.177 54.6319C302.882 51.4997 301.737 47.1594 301.737 41.6112C301.737 35.9812 302.903 31.6001 305.237 28.4679C307.591 25.315 310.826 23.7386 314.941 23.7386C319.262 23.7386 322.557 25.4174 324.83 28.775H325.136C324.666 26.2158 324.431 23.9332 324.431 21.9268V10.933H333.828V58.7162H326.642L324.83 54.2635H324.431C322.3 57.6414 319.057 59.3305 314.696 59.3305ZM317.982 51.8681C320.377 51.8681 322.127 51.1721 323.232 49.7798C324.358 48.3878 324.973 46.0231 325.076 42.6862V41.6727C325.076 37.9876 324.501 35.3466 323.356 33.7498C322.23 32.1529 320.388 31.3544 317.828 31.3544C315.74 31.3544 314.112 32.245 312.946 34.0261C311.798 35.7868 311.226 38.3562 311.226 41.7341C311.226 45.1122 311.809 47.6508 312.976 49.3499C314.142 51.0287 315.811 51.8681 317.982 51.8681Z" fill="white"/>
<path d="M275.493 41.4883C275.493 44.8869 276.047 47.4561 277.151 49.1962C278.278 50.9366 280.1 51.8066 282.617 51.8066C285.115 51.8066 286.907 50.9468 287.993 49.227C289.098 47.4869 289.651 44.9072 289.651 41.4883C289.651 38.0898 289.098 35.541 287.993 33.8418C286.886 32.1425 285.074 31.293 282.557 31.293C280.059 31.293 278.258 32.1425 277.151 33.8418C276.047 35.5205 275.493 38.0693 275.493 41.4883ZM299.232 41.4883C299.232 47.0774 297.758 51.4483 294.809 54.601C291.861 57.7539 287.756 59.3302 282.495 59.3302C279.198 59.3302 276.292 58.6137 273.773 57.1807C271.256 55.7271 269.32 53.6491 267.97 50.9468C266.619 48.2443 265.942 45.0916 265.942 41.4883C265.942 35.8788 267.406 31.5182 270.335 28.4063C273.262 25.2944 277.378 23.7385 282.679 23.7385C285.976 23.7385 288.882 24.4551 291.401 25.8882C293.918 27.3213 295.854 29.3787 297.204 32.0607C298.557 34.7427 299.232 37.8851 299.232 41.4883Z" fill="white"/>
<path d="M239.699 41.4883C239.699 44.8869 240.252 47.4561 241.357 49.1962C242.483 50.9366 244.306 51.8066 246.823 51.8066C249.321 51.8066 251.113 50.9468 252.198 49.227C253.303 47.4869 253.857 44.9072 253.857 41.4883C253.857 38.0898 253.303 35.541 252.198 33.8418C251.092 32.1425 249.28 31.293 246.763 31.293C244.265 31.293 242.464 32.1425 241.357 33.8418C240.252 35.5205 239.699 38.0693 239.699 41.4883ZM263.438 41.4883C263.438 47.0774 261.963 51.4483 259.015 54.601C256.066 57.7539 251.962 59.3302 246.701 59.3302C243.404 59.3302 240.498 58.6137 237.979 57.1807C235.462 55.7271 233.526 53.6491 232.175 50.9468C230.823 48.2443 230.148 45.0916 230.148 41.4883C230.148 35.8788 231.612 31.5182 234.541 28.4063C237.468 25.2944 241.583 23.7385 246.885 23.7385C250.181 23.7385 253.088 24.4551 255.607 25.8882C258.124 27.3213 260.059 29.3787 261.41 32.0607C262.762 34.7427 263.438 37.8851 263.438 41.4883Z" fill="white"/>
<path d="M210.998 58.7161L208.357 46.7089L204.857 31.5387H204.58L198.315 58.7161H188.242L178.478 24.3834H187.813L191.774 39.5845C192.225 41.386 192.849 45.1427 193.648 50.8546H193.894C193.975 49.2986 194.334 46.8318 194.969 43.4537L195.46 40.8435L199.697 24.3834H210.015L214.039 40.8435C214.284 41.9695 214.581 43.6278 214.93 45.8183C215.297 47.9884 215.502 49.6672 215.543 50.8546H215.789C216.013 49.0326 216.331 46.9649 216.742 44.6515C217.15 42.3176 217.498 40.6285 217.784 39.5845L221.9 24.3834H231.081L221.193 58.7161H210.998Z" fill="white"/>
<path d="M156.993 59.3305C152.96 59.3305 149.786 57.7643 147.473 54.6319C145.18 51.4997 144.033 47.1594 144.033 41.6112C144.033 35.9812 145.2 31.6001 147.534 28.4679C149.889 25.315 153.123 23.7386 157.238 23.7386C161.558 23.7386 164.854 25.4174 167.127 28.775H167.434C166.963 26.2158 166.727 23.9332 166.727 21.9268V10.933H176.124V58.7162H168.938L167.127 54.2635H166.727C164.598 57.6414 161.353 59.3305 156.993 59.3305ZM160.278 51.8681C162.674 51.8681 164.424 51.1721 165.53 49.7798C166.656 48.3878 167.27 46.0231 167.372 42.6862V41.6727C167.372 37.9876 166.799 35.3466 165.653 33.7498C164.527 32.1529 162.684 31.3544 160.125 31.3544C158.037 31.3544 156.409 32.245 155.242 34.0261C154.096 35.7868 153.523 38.3562 153.523 41.7341C153.523 45.1122 154.106 47.6508 155.273 49.3499C156.44 51.0287 158.108 51.8681 160.278 51.8681Z" fill="white"/>
<path d="M125.698 30.4024C123.712 30.4024 122.156 31.037 121.03 32.3064C119.904 33.5551 119.259 35.3363 119.095 37.6497H132.239C132.198 35.3363 131.594 33.5551 130.427 32.3064C129.26 31.037 127.684 30.4024 125.698 30.4024ZM127.018 59.3302C121.491 59.3302 117.171 57.805 114.059 54.7546C110.947 51.7043 109.391 47.3845 109.391 41.7955C109.391 36.0427 110.824 31.6 113.691 28.4676C116.577 25.3149 120.559 23.7385 125.636 23.7385C130.489 23.7385 134.266 25.1205 136.968 27.8843C139.67 30.6481 141.022 34.4662 141.022 39.3387V43.8837H118.88C118.983 46.545 119.771 48.6231 121.245 50.1176C122.719 51.612 124.787 52.3594 127.448 52.3594C129.516 52.3594 131.471 52.1444 133.314 51.7145C135.156 51.2844 137.081 50.5987 139.087 49.6569V56.9042C137.449 57.7232 135.699 58.3272 133.836 58.7161C131.973 59.1255 129.7 59.3302 127.018 59.3302Z" fill="white"/>
<path d="M85.8778 33.7498H88.9486C91.958 33.7498 94.1793 33.2481 95.6124 32.2449C97.0455 31.2419 97.7621 29.6655 97.7621 27.5157C97.7621 25.3867 97.025 23.8716 95.5511 22.9709C94.0975 22.0701 91.8353 21.6197 88.7643 21.6197H85.8778V33.7498ZM85.8778 41.4885V58.7161H76.3579V13.8196H89.4399C95.5408 13.8196 100.055 14.9353 102.983 17.1669C105.91 19.3779 107.374 22.7457 107.374 27.2702C107.374 29.9112 106.647 32.2654 105.194 34.3333C103.74 36.3805 101.683 37.9875 99.0211 39.1546L112.226 58.7161H101.662L90.9448 41.4885H85.8778Z" fill="white"/>
<path d="M33.6055 0.264219C33.0599 -0.088073 32.3584 -0.088073 31.8127 0.264219L2.02347 19.4967C1.54145 19.7972 1.24536 20.3264 1.24536 20.899V49.3651C1.24536 49.9263 1.53015 50.449 2.00161 50.7534L31.8127 70C32.3584 70.3523 33.0599 70.3523 33.6055 70L63.4167 50.7534C63.8883 50.449 64.1731 49.9263 64.1731 49.3651V20.9032C64.1745 20.3305 63.8793 19.7986 63.3949 19.4967L33.6055 0.264219Z" fill="black"/>
<path d="M60.9142 23.8491V46.4153L50.5776 39.742L55.6271 36.4819C56.0855 36.186 56.3623 35.6776 56.3623 35.1321C56.3623 34.5864 56.0855 34.0782 55.6271 33.7823L50.5778 30.5224L60.9142 23.8491Z" fill="#E73C36"/>
<path d="M4.50513 23.8491V46.4153L14.8417 39.742L9.79226 36.4819C9.33391 36.186 9.05702 35.6776 9.05702 35.1321C9.05702 34.5864 9.33389 34.0782 9.79226 33.7823L14.8415 30.5224L4.50513 23.8491Z" fill="#E73C36"/>
<path d="M32.7096 18.9865L20.7664 11.2759L32.7096 3.56512L44.6528 11.2759L32.7096 18.9865Z" fill="#FFAD48"/>
<path d="M32.7096 66.6992L20.7664 58.9884L32.7096 51.2778L44.6528 58.9884L32.7096 66.6992Z" fill="#FFAD48"/>
<path d="M17.8351 57.0587L5.89185 49.3479L17.8351 41.6373L29.7785 49.3479L17.8351 57.0587Z" fill="#F47238"/>
<path d="M17.8351 28.61L5.89185 20.8993L17.8351 13.1886L29.7785 20.8993L17.8351 28.61Z" fill="#F47238"/>
<path d="M47.5835 57.0587L35.6401 49.3479L47.5835 41.6373L59.5268 49.3479L47.5835 57.0587Z" fill="#F47238"/>
<path d="M47.5835 28.61L35.6401 20.8993L47.5835 13.1886L59.5268 20.8993L47.5835 28.61Z" fill="#F47238"/>
<path d="M32.71 47.4526L13.6265 35.1322C19.9878 31.0252 26.3487 26.9186 32.71 22.8117C39.0712 26.9186 45.4325 31.0252 51.7936 35.1322L32.71 47.4526Z" fill="#8B2343"/>
</g>
<defs>
<clipPath id="clip0_35_23">
<rect width="449" height="70.7087" fill="white"/>
</clipPath>
</defs>
</svg>
