<svg width="449" height="71" viewBox="0 0 449 71" fill="none" xmlns="http://www.w3.org/2000/svg">
<g clip-path="url(#clip0_34_2)">
<path d="M448.463 59.0074H437.653L425.893 40.0907L421.869 42.9774V59.0074H412.35V14.1109H421.869V34.6552L425.615 29.3733L437.777 14.1109H448.341L432.679 33.9796L448.463 59.0074Z" fill="black"/>
<path d="M408.705 36.1293C408.705 43.5199 406.596 49.1805 402.379 53.1114C398.182 57.0421 392.112 59.0074 384.168 59.0074H371.454V14.1109H385.55C392.879 14.1109 398.571 16.0456 402.624 19.9149C406.678 23.7843 408.705 29.1891 408.705 36.1293ZM398.817 36.375C398.817 26.7323 394.558 21.911 386.041 21.911H380.975V51.146H385.058C394.231 51.146 398.817 46.2222 398.817 36.375Z" fill="black"/>
<path d="M367.718 46.5396C367.718 50.5931 366.255 53.7869 363.327 56.1208C360.42 58.4547 356.366 59.6216 351.166 59.6216C346.375 59.6216 342.138 58.7208 338.452 56.9193V48.075C341.482 49.4263 344.042 50.3782 346.129 50.931C348.238 51.4837 350.163 51.76 351.903 51.76C353.992 51.76 355.588 51.3609 356.693 50.5624C357.819 49.7641 358.383 48.5765 358.383 47.0003C358.383 46.1199 358.137 45.342 357.646 44.6663C357.155 43.9702 356.428 43.3049 355.466 42.6702C354.524 42.0356 352.589 41.0222 349.661 39.6301C346.918 38.3402 344.86 37.1016 343.488 35.9142C342.117 34.7268 341.022 33.345 340.204 31.7686C339.384 30.1921 338.975 28.3496 338.975 26.2409C338.975 22.2692 340.315 19.1471 342.997 16.8747C345.7 14.6022 349.426 13.466 354.176 13.466C356.509 13.466 358.731 13.7424 360.84 14.2951C362.969 14.8479 365.191 15.6258 367.503 16.629L364.432 24.0298C362.037 23.0472 360.052 22.3613 358.475 21.9724C356.919 21.5833 355.383 21.3889 353.868 21.3889C352.067 21.3889 350.685 21.8085 349.723 22.648C348.761 23.4873 348.279 24.5826 348.279 25.9339C348.279 26.7732 348.473 27.5103 348.864 28.1449C349.253 28.759 349.866 29.363 350.706 29.9566C351.565 30.5299 353.582 31.5741 356.755 33.089C360.952 35.0954 363.83 37.1118 365.385 39.1387C366.941 41.1451 367.718 43.6119 367.718 46.5396Z" fill="black"/>
<path d="M314.696 59.6218C310.662 59.6218 307.489 58.0556 305.177 54.9232C302.882 51.7909 301.737 47.4507 301.737 41.9025C301.737 36.2725 302.903 31.8914 305.237 28.7592C307.591 25.6063 310.826 24.0298 314.941 24.0298C319.262 24.0298 322.557 25.7086 324.83 29.0662H325.136C324.666 26.5071 324.431 24.2245 324.431 22.2181V11.2243H333.828V59.0075H326.642L324.83 54.5548H324.431C322.3 57.9327 319.057 59.6218 314.696 59.6218ZM317.982 52.1593C320.377 52.1593 322.127 51.4634 323.232 50.0711C324.358 48.6791 324.973 46.3144 325.076 42.9775V41.964C325.076 38.2789 324.501 35.6379 323.356 34.0411C322.23 32.4442 320.388 31.6457 317.828 31.6457C315.74 31.6457 314.112 32.5363 312.946 34.3174C311.798 36.0781 311.226 38.6474 311.226 42.0254C311.226 45.4035 311.809 47.9421 312.976 49.6412C314.142 51.32 315.811 52.1593 317.982 52.1593Z" fill="black"/>
<path d="M275.493 41.7796C275.493 45.1782 276.047 47.7474 277.151 49.4876C278.278 51.2279 280.1 52.098 282.617 52.098C285.115 52.098 286.907 51.2382 287.993 49.5183C289.098 47.7782 289.651 45.1986 289.651 41.7796C289.651 38.3812 289.098 35.8323 287.993 34.1332C286.886 32.4339 285.074 31.5843 282.557 31.5843C280.059 31.5843 278.258 32.4339 277.151 34.1332C276.047 35.8118 275.493 38.3607 275.493 41.7796ZM299.232 41.7796C299.232 47.3688 297.758 51.7397 294.809 54.8924C291.861 58.0453 287.756 59.6216 282.495 59.6216C279.198 59.6216 276.292 58.9051 273.773 57.472C271.256 56.0184 269.32 53.9405 267.97 51.2382C266.619 48.5357 265.942 45.3829 265.942 41.7796C265.942 36.1701 267.406 31.8095 270.335 28.6976C273.262 25.5858 277.378 24.0298 282.679 24.0298C285.976 24.0298 288.882 24.7464 291.401 26.1795C293.918 27.6126 295.854 29.6701 297.204 32.3521C298.557 35.034 299.232 38.1765 299.232 41.7796Z" fill="black"/>
<path d="M239.699 41.7796C239.699 45.1782 240.252 47.7474 241.357 49.4876C242.483 51.2279 244.306 52.098 246.823 52.098C249.321 52.098 251.113 51.2382 252.198 49.5183C253.303 47.7782 253.857 45.1986 253.857 41.7796C253.857 38.3812 253.303 35.8323 252.198 34.1332C251.092 32.4339 249.28 31.5843 246.763 31.5843C244.265 31.5843 242.464 32.4339 241.357 34.1332C240.252 35.8118 239.699 38.3607 239.699 41.7796ZM263.438 41.7796C263.438 47.3688 261.963 51.7397 259.015 54.8924C256.066 58.0453 251.962 59.6216 246.701 59.6216C243.404 59.6216 240.498 58.9051 237.979 57.472C235.462 56.0184 233.526 53.9405 232.175 51.2382C230.823 48.5357 230.148 45.3829 230.148 41.7796C230.148 36.1701 231.612 31.8095 234.541 28.6976C237.468 25.5858 241.583 24.0298 246.885 24.0298C250.181 24.0298 253.088 24.7464 255.607 26.1795C258.124 27.6126 260.059 29.6701 261.41 32.3521C262.762 35.034 263.438 38.1765 263.438 41.7796Z" fill="black"/>
<path d="M210.998 59.0074L208.357 47.0002L204.857 31.83H204.58L198.315 59.0074H188.242L178.478 24.6747H187.813L191.774 39.8758C192.225 41.6773 192.849 45.434 193.648 51.1459H193.894C193.975 49.5899 194.334 47.1231 194.969 43.745L195.46 41.1348L199.697 24.6747H210.015L214.039 41.1348C214.284 42.2608 214.581 43.9191 214.93 46.1097C215.297 48.2797 215.502 49.9585 215.543 51.1459H215.789C216.013 49.3239 216.331 47.2562 216.742 44.9428C217.15 42.6089 217.498 40.9198 217.784 39.8758L221.9 24.6747H231.081L221.193 59.0074H210.998Z" fill="black"/>
<path d="M156.993 59.6218C152.96 59.6218 149.786 58.0556 147.473 54.9232C145.18 51.7909 144.033 47.4507 144.033 41.9025C144.033 36.2725 145.2 31.8914 147.534 28.7592C149.889 25.6063 153.123 24.0298 157.238 24.0298C161.558 24.0298 164.854 25.7086 167.127 29.0662H167.434C166.963 26.5071 166.727 24.2245 166.727 22.2181V11.2243H176.124V59.0075H168.938L167.127 54.5548H166.727C164.598 57.9327 161.353 59.6218 156.993 59.6218ZM160.278 52.1593C162.674 52.1593 164.424 51.4634 165.53 50.0711C166.656 48.6791 167.27 46.3144 167.372 42.9775V41.964C167.372 38.2789 166.799 35.6379 165.653 34.0411C164.527 32.4442 162.684 31.6457 160.125 31.6457C158.037 31.6457 156.409 32.5363 155.242 34.3174C154.096 36.0781 153.523 38.6474 153.523 42.0254C153.523 45.4035 154.106 47.9421 155.273 49.6412C156.44 51.32 158.108 52.1593 160.278 52.1593Z" fill="black"/>
<path d="M125.698 30.6938C123.712 30.6938 122.156 31.3284 121.03 32.5978C119.904 33.8465 119.259 35.6276 119.095 37.941H132.239C132.198 35.6276 131.594 33.8465 130.427 32.5978C129.26 31.3284 127.684 30.6938 125.698 30.6938ZM127.018 59.6216C121.491 59.6216 117.171 58.0964 114.059 55.046C110.947 51.9956 109.391 47.6759 109.391 42.0869C109.391 36.334 110.824 31.8914 113.691 28.759C116.577 25.6063 120.559 24.0298 125.636 24.0298C130.489 24.0298 134.266 25.4118 136.968 28.1756C139.67 30.9395 141.022 34.7576 141.022 39.6301V44.1751H118.88C118.983 46.8364 119.771 48.9145 121.245 50.4089C122.719 51.9033 124.787 52.6507 127.448 52.6507C129.516 52.6507 131.471 52.4358 133.314 52.0059C135.156 51.5758 137.081 50.8901 139.087 49.9483V57.1955C137.449 58.0145 135.699 58.6186 133.836 59.0074C131.973 59.4169 129.7 59.6216 127.018 59.6216Z" fill="black"/>
<path d="M85.8778 34.0411H88.9486C91.958 34.0411 94.1793 33.5394 95.6124 32.5362C97.0455 31.5332 97.7621 29.9568 97.7621 27.8071C97.7621 25.678 97.025 24.1629 95.5511 23.2623C94.0975 22.3614 91.8353 21.911 88.7643 21.911H85.8778V34.0411ZM85.8778 41.7798V59.0074H76.3579V14.1109H89.4399C95.5408 14.1109 100.055 15.2267 102.983 17.4582C105.91 19.6692 107.374 23.0371 107.374 27.5615C107.374 30.2025 106.647 32.5567 105.194 34.6246C103.74 36.6718 101.683 38.2788 99.0211 39.4459L112.226 59.0074H101.662L90.9448 41.7798H85.8778Z" fill="black"/>
<path d="M33.6055 0.55554C33.0599 0.203248 32.3584 0.203248 31.8127 0.55554L2.02347 19.788C1.54145 20.0885 1.24536 20.6178 1.24536 21.1903V49.6564C1.24536 50.2176 1.53015 50.7404 2.00161 51.0448L31.8127 70.2913C32.3584 70.6436 33.0599 70.6436 33.6055 70.2913L63.4167 51.0448C63.8883 50.7404 64.1731 50.2176 64.1731 49.6564V21.1946C64.1745 20.6218 63.8793 20.0899 63.3949 19.788L33.6055 0.55554Z" fill="black"/>
<path d="M60.9142 24.1404V46.7066L50.5776 40.0333L55.6271 36.7733C56.0855 36.4773 56.3623 35.9689 56.3623 35.4234C56.3623 34.8777 56.0855 34.3695 55.6271 34.0736L50.5778 30.8137L60.9142 24.1404Z" fill="#E73C36"/>
<path d="M4.50513 24.1404V46.7066L14.8417 40.0333L9.79226 36.7733C9.33391 36.4773 9.05702 35.9689 9.05702 35.4234C9.05702 34.8777 9.33389 34.3695 9.79226 34.0736L14.8415 30.8137L4.50513 24.1404Z" fill="#E73C36"/>
<path d="M32.7096 19.2779L20.7664 11.5672L32.7096 3.85645L44.6528 11.5672L32.7096 19.2779Z" fill="#FFAD48"/>
<path d="M32.7096 66.9905L20.7664 59.2797L32.7096 51.5691L44.6528 59.2797L32.7096 66.9905Z" fill="#FFAD48"/>
<path d="M17.8351 57.35L5.89185 49.6393L17.8351 41.9286L29.7785 49.6393L17.8351 57.35Z" fill="#F47238"/>
<path d="M17.8351 28.9013L5.89185 21.1905L17.8351 13.4799L29.7785 21.1905L17.8351 28.9013Z" fill="#F47238"/>
<path d="M47.5835 57.35L35.6401 49.6393L47.5835 41.9286L59.5268 49.6393L47.5835 57.35Z" fill="#F47238"/>
<path d="M47.5835 28.9013L35.6401 21.1905L47.5835 13.4799L59.5268 21.1905L47.5835 28.9013Z" fill="#F47238"/>
<path d="M32.71 47.7439L13.6265 35.4235C19.9878 31.3165 26.3487 27.21 32.71 23.103C39.0712 27.21 45.4325 31.3165 51.7936 35.4235L32.71 47.7439Z" fill="#8B2343"/>
</g>
<defs>
<clipPath id="clip0_34_2">
<rect width="449" height="70.7087" fill="white" transform="translate(0 0.291321)"/>
</clipPath>
</defs>
</svg>
