<?xml version="1.0" encoding="UTF-8"?>
<svg id="Layer_1" xmlns="http://www.w3.org/2000/svg" version="1.1" viewBox="0 0 449.32 69.25">
  <!-- Generator: Adobe Illustrator 29.3.0, SVG Export Plug-In . SVG Version: 2.1.0 Build 146)  -->
  <defs>
    <style>
      .st0 {
        fill: #c04927;
      }

      .st0, .st1 {
        fill-rule: evenodd;
      }

      .st1 {
        fill: #fff;
      }
    </style>
  </defs>
  <path class="st1" d="M27.98.98c-2.59,1.31-8.05,3.86-11.01,5.89-2.96,2.03-2.59,3.93-3.89,5.24-1.3,1.31-5.18,4.58-7.77,6.55-2.59,1.96-1.94,7.2-2.59,9.17-.65,1.96-1.94,6.55-2.59,8.51-.65,1.96,1.29,4.58,2.59,7.2,1.3,2.62,4.53,9.82,5.83,12.44,1.3,2.62,5.18,1.31,8.42,3.93,3.24,2.62,7.77,5.89,11.01,7.86,3.24,1.96,4.53,1.96,7.77,0,3.24-1.96,7.77-5.24,11.01-7.86,3.24-2.62,7.13-1.31,8.42-3.93,1.29-2.62,4.53-9.82,5.83-12.44,1.3-2.62,3.24-5.24,2.59-7.2-.65-1.96-1.94-6.55-2.59-8.51-.65-1.96,0-7.2-2.59-9.17-2.59-1.96-5.6-4.47-7.77-6.55-2.17-2.08-1.29-3.27-3.89-5.24-2.59-1.96-8.42-4.58-11.01-5.89-2.59-1.31-5.18-1.31-7.77,0Z"/>
  <path class="st0" d="M18.84,12.34l12.12,8.32c.27.18.59.28.92.29.33,0,.65-.1.92-.29l12.13-8.35c.23-.17.42-.39.54-.65.12-.26.17-.55.15-.83-.02-.29-.12-.56-.28-.8-.16-.24-.38-.43-.64-.56l-12.12-6.03c-.23-.11-.48-.17-.73-.17s-.5.06-.73.17l-12.09,6.03c-.26.13-.49.32-.65.57-.16.24-.26.52-.28.81-.02.29.04.58.16.84.13.26.32.49.56.65h0ZM36,23.27c0,.27.06.54.19.78.13.24.31.45.53.6l9.72,6.68c.3.21.67.31,1.03.29.37-.02.71-.17.99-.42l8.15-7.33c.18-.16.32-.36.42-.58.1-.22.14-.46.13-.71,0-.24-.07-.48-.18-.7-.11-.22-.26-.41-.45-.56l-7.78-6.26c-.27-.22-.61-.35-.96-.36-.35-.01-.7.09-.99.28l-10.08,6.93c-.22.15-.4.35-.52.59-.12.24-.19.49-.2.76ZM11.82,32.36c.39.36.6.88.54,1.41-.02.26-.11.51-.25.73-.14.22-.34.4-.57.53l-5.8,3.5c-.59.35-1.33.3-1.87-.13-.54-.43-.75-1.15-.55-1.81l2.15-6.79c.08-.26.23-.5.43-.69.2-.19.44-.33.71-.41.26-.08.55-.08.81-.02.27.06.52.2.72.38l3.68,3.29ZM43.31,33.07l-10.49-7.22c-.27-.18-.59-.28-.92-.28s-.65.1-.92.28l-10.49,7.22c-.21.14-.38.33-.5.55-.12.22-.2.46-.22.72-.01.25.03.51.12.74.1.24.24.45.43.62l10.49,9.43c.3.27.69.42,1.1.42s.8-.15,1.1-.42l10.48-9.43c.19-.17.33-.38.43-.62.09-.24.13-.49.12-.74-.01-.25-.08-.5-.21-.72-.12-.22-.29-.41-.5-.55h0ZM15.32,31.2l-8.15-7.33c-.18-.17-.33-.37-.42-.6-.1-.23-.14-.47-.13-.72,0-.24.06-.48.17-.7.11-.22.26-.41.45-.56l7.78-6.3c.28-.22.62-.35.97-.36.35-.01.7.09.99.28l10.07,6.93c.47.31.75.83.75,1.4s-.28,1.09-.75,1.4l-9.71,6.68c-.63.43-1.46.37-2.02-.13ZM57.13,41.73l-8.29-4.99c-.3-.18-.65-.26-1-.23-.35.03-.68.18-.94.41l-10.14,9.09c-.21.19-.37.43-.46.7-.09.27-.12.55-.07.83.05.28.17.54.34.76.18.22.41.39.67.5l14.06,5.73c.4.16.84.16,1.23,0,.4-.16.71-.47.88-.86l4.36-9.81c.17-.37.2-.8.08-1.19-.12-.39-.38-.73-.73-.94ZM58.29,29.8l2.15,6.79h-.02c.08.25.1.52.05.77-.04.26-.14.5-.3.72-.24.33-.6.56-1,.65-.4.08-.82.01-1.17-.2l-5.81-3.5c-.22-.13-.41-.32-.55-.54-.14-.22-.22-.47-.24-.73-.03-.26,0-.52.1-.77.09-.24.25-.46.44-.64l3.69-3.3c.42-.37.99-.51,1.53-.36.27.08.51.22.71.41.2.19.34.43.43.7ZM27.53,47.55c.05-.28.03-.56-.06-.83-.09-.27-.25-.51-.46-.7l-10.13-9.09c-.26-.24-.59-.38-.94-.41-.35-.03-.7.05-1,.23l-8.29,4.99c-.35.21-.61.55-.73.94-.12.39-.1.81.06,1.19l4.37,9.81c.17.39.49.7.88.86.4.16.84.16,1.24,0l14.05-5.73c.26-.11.49-.28.67-.5s.3-.48.34-.76h0ZM32.51,50.34l11.28,4.59c.27.12.51.31.68.55.17.24.28.52.31.82.04.3-.01.6-.13.88-.12.27-.32.51-.57.68l-11.28,7.88c-.27.19-.59.3-.92.3-.33,0-.65-.11-.92-.3l-11.28-7.88c-.25-.17-.45-.41-.57-.68-.13-.27-.17-.58-.14-.88.03-.3.15-.58.33-.82.18-.24.43-.43.7-.54l11.28-4.59c.4-.16.84-.16,1.24,0Z"/>
  <g>
    <path d="M372.04,56.63V14.26h20.21c2.49,0,7.42,2.13,9.43,3.67,8.81,6.75,9.63,22.57,3.48,31.26-7.52,10.62-21.96,6.66-33.12,7.44ZM381.24,49.11h8.78c1.26,0,4.25-1.41,5.29-2.24,5.95-4.72,5.95-19.18-.6-23.36-.84-.53-3.52-1.72-4.41-1.72h-9.06v27.32Z"/>
    <path d="M100.64,14.26c1.09.12,3.18.87,4.23,1.35,10.29,4.71,9.81,20.03-1.04,23.63l9.78,17.4h-9.9l-8.5-15.61h-5.57v15.61h-9.2V14.26h20.21ZM89.63,33.78h9.06c.2,0,1.38-.64,1.68-.83,3.72-2.24,3.72-8.38,0-10.61-.3-.18-1.48-.83-1.68-.83h-9.06v12.26Z"/>
    <polygon points="422 14.26 422 34.05 437.75 14.26 448.2 14.26 433.42 32.22 449.32 56.63 438.87 56.63 427.16 39.08 422 44.79 422 56.63 412.8 56.63 412.8 14.26 422 14.26"/>
    <polygon points="190.74 26.04 196.18 46.67 201.32 26.17 209.67 26.07 214.96 46 215.55 46.39 220.99 26.04 229.21 26.04 219.05 57 210.85 56.95 205.38 37.47 199.93 56.97 191.33 56.96 181.54 26.04 190.74 26.04"/>
    <path d="M332.35,14.26v42.37h-8.36l-.28-2.79c-6.79,6.24-17.67,4.14-21.42-4.36-2.66-6.02-2.32-14.73,2.05-19.89s13.84-6.56,19.1-1.67v-13.66h8.92ZM315.56,31.9c-6.72.97-7.51,11.59-4.24,16.08,2.58,3.54,9.29,3.28,12.05.1l.05-13.59c-1.44-2.56-5.16-2.97-7.86-2.58Z"/>
    <path d="M178.3,14.26v42.37h-8.08l-.28-2.79-4.18,2.64c-14.64,4.99-22.53-10.4-17.77-22.79,3.26-8.48,14.4-11.9,21.4-5.78v-13.66h8.92ZM169.32,48.49l-.08-14.72c-3.48-2.81-9.43-2.96-12.08,1.02-1.86,2.79-1.92,8.18-.74,11.24,2.14,5.58,8.57,5.53,12.9,2.46Z"/>
    <path d="M365.51,23.46c-4.72-1.7-11.72-3.7-16.59-1.96-3.94,1.4-3.9,5.71-.55,7.82,5.73,3.62,16.1,2.1,18.68,11.14,4.6,16.16-14.36,19.52-25.93,15.62-.87-.3-3.81-1.5-4.31-2.1-.86-1.04.43-6.07.28-7.66,1.37.65,2.68,1.35,4.11,1.88,3.86,1.44,9.39,2.43,13.39,1.26s5.07-5.77,1.26-8.11c-7.04-4.31-18.49-2.37-19.31-14.42-1.09-15.93,19.6-15.53,29.7-10.74l-.72,7.26Z"/>
    <path d="M123,44.09c1.49,8.89,13.63,6.93,19.37,3.63l-.56,6.97c-9.33,5.12-24.34,3.84-27.09-8.3-3-13.25,5.31-24.67,19.49-20.88,4.8,1.28,9.42,6.39,9.42,11.49v6.69l-.42.42h-20.21ZM135.26,38.51c.81-9.18-12.8-9.09-12.26,0h12.26Z"/>
    <path d="M279.5,24.94c13.3-1.26,20.27,8.85,17.43,21.33-3.63,15.95-29.83,14.93-31.31-2.6-.82-9.77,3.53-17.75,13.88-18.73ZM280.9,31.62c-6.24.45-6.76,6.75-6.37,11.78.78,9.92,12.89,9.62,13.92.8.67-5.72-.17-13.11-7.55-12.57Z"/>
    <path d="M244.41,24.94c13.45-1.38,20.82,9.34,17.41,21.87-4.08,14.98-28.13,14.33-30.93-1.83-1.73-9.97,2.9-18.96,13.52-20.05ZM245.8,31.62c-6.88.63-7.44,9.97-5.45,15.05,2.19,5.58,10.45,5.45,12.53-.16s1-15.63-7.08-14.89Z"/>
  </g>
</svg>