<svg width="450" height="70" viewBox="0 0 450 70" fill="none" xmlns="http://www.w3.org/2000/svg">
<g clip-path="url(#clip0_867_1264)">
<path fill-rule="evenodd" clip-rule="evenodd" d="M27.9796 0.980059C25.3896 2.29006 19.9296 4.84006 16.9696 6.87006C14.0096 8.90006 14.3796 10.8001 13.0796 12.1101C11.7796 13.4201 7.89962 16.6901 5.30962 18.6601C2.71962 20.6201 3.36962 25.8601 2.71962 27.8301C2.06962 29.7901 0.779621 34.3801 0.129621 36.3401C-0.520379 38.3001 1.41962 40.9201 2.71962 43.5401C4.01962 46.1601 7.24962 53.3601 8.54962 55.9801C9.84962 58.6001 13.7296 57.2901 16.9696 59.9101C20.2096 62.5301 24.7396 65.8001 27.9796 67.7701C31.2196 69.7301 32.5096 69.7301 35.7496 67.7701C38.9896 65.8101 43.5196 62.5301 46.7596 59.9101C49.9996 57.2901 53.8896 58.6001 55.1796 55.9801C56.4696 53.3601 59.7096 46.1601 61.0096 43.5401C62.3096 40.9201 64.2496 38.3001 63.5996 36.3401C62.9496 34.3801 61.6596 29.7901 61.0096 27.8301C60.3596 25.8701 61.0096 20.6301 58.4196 18.6601C55.8296 16.7001 52.8196 14.1901 50.6496 12.1101C48.4796 10.0301 49.3596 8.84006 46.7596 6.87006C44.1696 4.91006 38.3396 2.29006 35.7496 0.980059C33.1596 -0.329941 30.5696 -0.329941 27.9796 0.980059Z" fill="white"/>
<path fill-rule="evenodd" clip-rule="evenodd" d="M18.8405 12.34L30.9605 20.66C31.2305 20.84 31.5505 20.94 31.8805 20.95C32.2105 20.95 32.5305 20.85 32.8005 20.66L44.9305 12.31C45.1605 12.14 45.3505 11.92 45.4705 11.66C45.5905 11.4 45.6405 11.11 45.6205 10.83C45.6005 10.54 45.5005 10.27 45.3405 10.03C45.1805 9.79002 44.9605 9.60002 44.7005 9.47002L32.5805 3.44002C32.3505 3.33002 32.1005 3.27002 31.8505 3.27002C31.6005 3.27002 31.3505 3.33002 31.1205 3.44002L19.0305 9.47002C18.7705 9.60002 18.5405 9.79002 18.3805 10.04C18.2205 10.28 18.1205 10.56 18.1005 10.85C18.0805 11.14 18.1405 11.43 18.2605 11.69C18.3905 11.95 18.5805 12.18 18.8205 12.34H18.8405ZM36.0005 23.27C36.0005 23.54 36.0605 23.81 36.1905 24.05C36.3205 24.29 36.5005 24.5 36.7205 24.65L46.4405 31.33C46.7405 31.54 47.1105 31.64 47.4705 31.62C47.8405 31.6 48.1805 31.45 48.4605 31.2L56.6105 23.87C56.7905 23.71 56.9305 23.51 57.0305 23.29C57.1305 23.07 57.1705 22.83 57.1605 22.58C57.1605 22.34 57.0905 22.1 56.9805 21.88C56.8705 21.66 56.7205 21.47 56.5305 21.32L48.7505 15.06C48.4805 14.84 48.1405 14.71 47.7905 14.7C47.4405 14.69 47.0905 14.79 46.8005 14.98L36.7205 21.91C36.5005 22.06 36.3205 22.26 36.2005 22.5C36.0805 22.74 36.0105 22.99 36.0005 23.26V23.27ZM11.8205 32.36C12.2105 32.72 12.4205 33.24 12.3605 33.77C12.3405 34.03 12.2505 34.28 12.1105 34.5C11.9705 34.72 11.7705 34.9 11.5405 35.03L5.74047 38.53C5.15047 38.88 4.41047 38.83 3.87047 38.4C3.33047 37.97 3.12047 37.25 3.32047 36.59L5.47047 29.8C5.55047 29.54 5.70047 29.3 5.90047 29.11C6.10047 28.92 6.34047 28.78 6.61047 28.7C6.87047 28.62 7.16047 28.62 7.42047 28.68C7.69047 28.74 7.94047 28.88 8.14047 29.06L11.8205 32.35V32.36ZM43.3105 33.07L32.8205 25.85C32.5505 25.67 32.2305 25.57 31.9005 25.57C31.5705 25.57 31.2505 25.67 30.9805 25.85L20.4905 33.07C20.2805 33.21 20.1105 33.4 19.9905 33.62C19.8705 33.84 19.7905 34.08 19.7705 34.34C19.7605 34.59 19.8005 34.85 19.8905 35.08C19.9905 35.32 20.1305 35.53 20.3205 35.7L30.8105 45.13C31.1105 45.4 31.5005 45.55 31.9105 45.55C32.3205 45.55 32.7105 45.4 33.0105 45.13L43.4905 35.7C43.6805 35.53 43.8205 35.32 43.9205 35.08C44.0105 34.84 44.0505 34.59 44.0405 34.34C44.0305 34.09 43.9605 33.84 43.8305 33.62C43.7105 33.4 43.5405 33.21 43.3305 33.07H43.3105ZM15.3205 31.2L7.17047 23.87C6.99047 23.7 6.84047 23.5 6.75047 23.27C6.65047 23.04 6.61047 22.8 6.62047 22.55C6.62047 22.31 6.68047 22.07 6.79047 21.85C6.90047 21.63 7.05047 21.44 7.24047 21.29L15.0205 14.99C15.3005 14.77 15.6405 14.64 15.9905 14.63C16.3405 14.62 16.6905 14.72 16.9805 14.91L27.0505 21.84C27.5205 22.15 27.8005 22.67 27.8005 23.24C27.8005 23.81 27.5205 24.33 27.0505 24.64L17.3405 31.32C16.7105 31.75 15.8805 31.69 15.3205 31.19V31.2ZM57.1305 41.73L48.8405 36.74C48.5405 36.56 48.1905 36.48 47.8405 36.51C47.4905 36.54 47.1605 36.69 46.9005 36.92L36.7605 46.01C36.5505 46.2 36.3905 46.44 36.3005 46.71C36.2105 46.98 36.1805 47.26 36.2305 47.54C36.2805 47.82 36.4005 48.08 36.5705 48.3C36.7505 48.52 36.9805 48.69 37.2405 48.8L51.3005 54.53C51.7005 54.69 52.1405 54.69 52.5305 54.53C52.9305 54.37 53.2405 54.06 53.4105 53.67L57.7705 43.86C57.9405 43.49 57.9705 43.06 57.8505 42.67C57.7305 42.28 57.4705 41.94 57.1205 41.73H57.1305ZM58.2905 29.8L60.4405 36.59H60.4205C60.5005 36.84 60.5205 37.11 60.4705 37.36C60.4305 37.62 60.3305 37.86 60.1705 38.08C59.9305 38.41 59.5705 38.64 59.1705 38.73C58.7705 38.81 58.3505 38.74 58.0005 38.53L52.1905 35.03C51.9705 34.9 51.7805 34.71 51.6405 34.49C51.5005 34.27 51.4205 34.02 51.4005 33.76C51.3705 33.5 51.4005 33.24 51.5005 32.99C51.5905 32.75 51.7505 32.53 51.9405 32.35L55.6305 29.05C56.0505 28.68 56.6205 28.54 57.1605 28.69C57.4305 28.77 57.6705 28.91 57.8705 29.1C58.0705 29.29 58.2105 29.53 58.3005 29.8H58.2905ZM27.5305 47.55C27.5805 47.27 27.5605 46.99 27.4705 46.72C27.3805 46.45 27.2205 46.21 27.0105 46.02L16.8805 36.93C16.6205 36.69 16.2905 36.55 15.9405 36.52C15.5905 36.49 15.2405 36.57 14.9405 36.75L6.65047 41.74C6.30047 41.95 6.04047 42.29 5.92047 42.68C5.80047 43.07 5.82047 43.49 5.98047 43.87L10.3505 53.68C10.5205 54.07 10.8405 54.38 11.2305 54.54C11.6305 54.7 12.0705 54.7 12.4705 54.54L26.5205 48.81C26.7805 48.7 27.0105 48.53 27.1905 48.31C27.3705 48.09 27.4905 47.83 27.5305 47.55ZM32.5105 50.34L43.7905 54.93C44.0605 55.05 44.3005 55.24 44.4705 55.48C44.6405 55.72 44.7505 56 44.7805 56.3C44.8205 56.6 44.7705 56.9 44.6505 57.18C44.5305 57.45 44.3305 57.69 44.0805 57.86L32.8005 65.74C32.5305 65.93 32.2105 66.04 31.8805 66.04C31.5505 66.04 31.2305 65.93 30.9605 65.74L19.6805 57.86C19.4305 57.69 19.2305 57.45 19.1105 57.18C18.9805 56.91 18.9405 56.6 18.9705 56.3C19.0005 56 19.1205 55.72 19.3005 55.48C19.4805 55.24 19.7305 55.05 20.0005 54.94L31.2805 50.35C31.6805 50.19 32.1205 50.19 32.5205 50.35L32.5105 50.34Z" fill="#C04927"/>
<path d="M372.04 56.63V14.26H392.25C394.74 14.26 399.67 16.39 401.68 17.93C410.49 24.68 411.31 40.5 405.16 49.19C397.64 59.81 383.2 55.85 372.04 56.63ZM381.24 49.11H390.02C391.28 49.11 394.27 47.7 395.31 46.87C401.26 42.15 401.26 27.69 394.71 23.51C393.87 22.98 391.19 21.79 390.3 21.79H381.24V49.11Z" fill="white"/>
<path d="M100.64 14.26C101.73 14.38 103.82 15.13 104.87 15.61C115.16 20.32 114.68 35.64 103.83 39.24L113.61 56.64H103.71L95.2104 41.03H89.6404V56.64H80.4404V14.26H100.65H100.64ZM89.6304 33.78H98.6904C98.8904 33.78 100.07 33.14 100.37 32.95C104.09 30.71 104.09 24.57 100.37 22.34C100.07 22.16 98.8904 21.51 98.6904 21.51H89.6304V33.77V33.78Z" fill="white"/>
<path d="M422.001 14.26V34.05L437.751 14.26H448.201L433.421 32.22L449.321 56.63H438.871L427.161 39.08L422.001 44.79V56.63H412.801V14.26H422.001Z" fill="white"/>
<path d="M190.74 26.04L196.18 46.67L201.32 26.17L209.67 26.07L214.96 46L215.55 46.39L220.99 26.04H229.21L219.05 57L210.85 56.95L205.38 37.47L199.93 56.97L191.33 56.96L181.54 26.04H190.74Z" fill="white"/>
<path d="M332.351 14.26V56.63H323.991L323.711 53.84C316.921 60.08 306.041 57.98 302.291 49.48C299.631 43.46 299.971 34.75 304.341 29.59C308.711 24.43 318.181 23.03 323.441 27.92V14.26H332.361H332.351ZM315.561 31.9C308.841 32.87 308.051 43.49 311.321 47.98C313.901 51.52 320.611 51.26 323.371 48.08L323.421 34.49C321.981 31.93 318.261 31.52 315.561 31.91V31.9Z" fill="white"/>
<path d="M178.3 14.26V56.63H170.22L169.94 53.84L165.76 56.48C151.12 61.47 143.23 46.08 147.99 33.69C151.25 25.21 162.39 21.79 169.39 27.91V14.25H178.31L178.3 14.26ZM169.32 48.49L169.24 33.77C165.76 30.96 159.81 30.81 157.16 34.79C155.3 37.58 155.24 42.97 156.42 46.03C158.56 51.61 164.99 51.56 169.32 48.49Z" fill="white"/>
<path d="M365.51 23.46C360.79 21.76 353.79 19.76 348.92 21.5C344.98 22.9 345.02 27.21 348.37 29.32C354.1 32.94 364.47 31.42 367.05 40.46C371.65 56.62 352.69 59.98 341.12 56.08C340.25 55.78 337.31 54.58 336.81 53.98C335.95 52.94 337.24 47.91 337.09 46.32C338.46 46.97 339.77 47.67 341.2 48.2C345.06 49.64 350.59 50.63 354.59 49.46C358.59 48.29 359.66 43.69 355.85 41.35C348.81 37.04 337.36 38.98 336.54 26.93C335.45 11 356.14 11.4 366.24 16.19L365.52 23.45L365.51 23.46Z" fill="white"/>
<path d="M123.001 44.09C124.491 52.98 136.631 51.02 142.371 47.72L141.811 54.69C132.481 59.81 117.471 58.53 114.721 46.39C111.721 33.14 120.031 21.72 134.211 25.51C139.011 26.79 143.631 31.9 143.631 37V43.69L143.211 44.11H123.001V44.09ZM135.261 38.51C136.071 29.33 122.461 29.42 123.001 38.51H135.261Z" fill="white"/>
<path d="M279.501 24.94C292.801 23.68 299.771 33.79 296.931 46.27C293.301 62.22 267.101 61.2 265.621 43.67C264.801 33.9 269.151 25.92 279.501 24.94ZM280.901 31.62C274.661 32.07 274.141 38.37 274.531 43.4C275.311 53.32 287.421 53.02 288.451 44.2C289.121 38.48 288.281 31.09 280.901 31.63V31.62Z" fill="white"/>
<path d="M244.41 24.94C257.86 23.56 265.23 34.28 261.82 46.81C257.74 61.79 233.69 61.14 230.89 44.98C229.16 35.01 233.79 26.02 244.41 24.93V24.94ZM245.8 31.62C238.92 32.25 238.36 41.59 240.35 46.67C242.54 52.25 250.8 52.12 252.88 46.51C254.96 40.9 253.88 30.88 245.8 31.62Z" fill="white"/>
</g>
<defs>
<clipPath id="clip0_867_1264">
<rect width="449.32" height="69.25" fill="white"/>
</clipPath>
</defs>
</svg>
