<svg width="401" height="85" viewBox="0 0 401 85" fill="none" xmlns="http://www.w3.org/2000/svg">
<path fill-rule="evenodd" clip-rule="evenodd" d="M29.7976 8.12723C27.2058 9.43717 21.7433 11.9859 18.7848 14.0201C15.8262 16.0542 16.1929 17.9499 14.898 19.2599C13.603 20.5698 9.71435 23.8428 7.12441 25.8058C4.5326 27.7707 5.18008 33.0105 4.5326 34.9754C3.88511 36.9384 2.59014 41.5214 1.94266 43.4863C1.2933 45.4512 3.23763 48.0711 4.5326 50.6909C5.82944 53.309 9.06686 60.5118 10.3637 63.1298C11.6587 65.7496 15.5473 64.4397 18.7848 67.0596C22.0222 69.6795 26.5583 72.9543 29.7976 74.9174C33.035 76.8823 34.3319 76.8823 37.5712 74.9174C40.8086 72.9524 45.3447 69.6776 48.584 67.0577C51.8215 64.4397 55.7101 65.7496 57.0051 63.1298C58.3 60.5099 61.5393 53.309 62.8362 50.6891C64.1312 48.0692 66.0736 45.4493 65.4261 43.4863C64.7786 41.5214 63.4837 36.9366 62.8362 34.9735C62.1887 33.0086 62.8362 27.7707 60.2444 25.8058C57.6526 23.8409 54.6453 21.3408 52.4708 19.258C50.2963 17.1752 51.1758 15.9831 48.584 14.0182C45.9922 12.0552 40.163 9.43717 37.5712 8.12723C34.9794 6.81729 32.3876 6.81729 29.7976 8.12723Z" fill="white"/>
<path fill-rule="evenodd" clip-rule="evenodd" d="M20.6489 19.4881L32.7733 27.8063C33.046 27.9894 33.3656 28.0901 33.694 28.0963C34.0229 28.0933 34.3435 27.9923 34.6147 27.8063L46.7485 19.4601C46.9813 19.2923 47.1669 19.0672 47.2873 18.8067C47.4076 18.5462 47.4587 18.259 47.4355 17.9729C47.4124 17.6869 47.3158 17.4117 47.1551 17.1739C46.9945 16.9361 46.7751 16.7438 46.5184 16.6156L34.3939 10.5824C34.1672 10.4716 33.9183 10.4141 33.666 10.4141C33.4137 10.4141 33.1647 10.4716 32.938 10.5824L20.8491 16.6156C20.5875 16.7441 20.3641 16.939 20.2014 17.1808C20.0387 17.4227 19.9422 17.703 19.9218 17.9937C19.9013 18.2845 19.9575 18.5756 20.0848 18.8378C20.2121 19.1 20.4059 19.3243 20.647 19.4881H20.6489ZM37.8129 30.4168C37.8127 30.6878 37.8779 30.9549 38.003 31.1953C38.1281 31.4358 38.3094 31.6424 38.5315 31.7978L48.2512 38.4748C48.5528 38.6841 48.9164 38.7851 49.2827 38.7614C49.6491 38.7376 49.9966 38.5904 50.2685 38.3438L58.422 31.0137C58.6021 30.8517 58.7447 30.6524 58.84 30.4296C58.9353 30.2069 58.981 29.9661 58.9739 29.7239C58.9667 29.4817 58.907 29.244 58.7988 29.0273C58.6905 28.8105 58.5364 28.6199 58.3471 28.4687L50.5623 22.2109C50.2878 21.9913 49.9501 21.8655 49.5988 21.852C49.2474 21.8385 48.901 21.9381 48.6105 22.1361L38.5315 29.0657C38.3132 29.2183 38.1343 29.4205 38.0094 29.6557C37.8845 29.8909 37.8171 30.1505 37.8129 30.4168ZM13.637 39.5003C14.03 39.8558 14.2321 40.3798 14.1797 40.9094C14.1552 41.1712 14.068 41.4233 13.9253 41.6442C13.7826 41.8651 13.5887 42.0483 13.36 42.1782L7.55698 45.6757C6.96751 46.0275 6.22458 45.977 5.68938 45.5466C5.15418 45.1162 4.93523 44.3957 5.14295 43.7351L7.28938 36.9459C7.37098 36.6824 7.51739 36.4436 7.71518 36.2514C7.91298 36.0592 8.15585 35.9196 8.42154 35.8456C8.68626 35.768 8.96661 35.7606 9.23501 35.8243C9.50341 35.888 9.75062 36.0204 9.9523 36.2086L13.637 39.5003ZM45.1186 40.2114L34.6241 32.9918C34.3524 32.8076 34.0317 32.7092 33.7034 32.7092C33.3751 32.7092 33.0544 32.8076 32.7827 32.9918L22.2882 40.2095C22.0815 40.3541 21.9097 40.5431 21.7854 40.7626C21.661 40.9821 21.5873 41.2266 21.5696 41.4783C21.5558 41.732 21.598 41.9856 21.6935 42.2211C21.7889 42.4566 21.9351 42.6681 22.1216 42.8406L32.6068 52.2685C32.9076 52.5398 33.2983 52.6899 33.7034 52.6899C34.1085 52.6899 34.4992 52.5398 34.8 52.2685L45.2833 42.8388C45.4701 42.6673 45.6159 42.456 45.7099 42.2205C45.8038 41.9849 45.8435 41.7313 45.826 41.4783C45.8124 41.2269 45.7416 40.982 45.619 40.7621C45.4964 40.5422 45.3253 40.3533 45.1186 40.2095V40.2114ZM17.1289 38.3438L8.98295 31.0137C8.80137 30.8477 8.65785 30.6443 8.56224 30.4175C8.46663 30.1908 8.42119 29.946 8.42903 29.7001C8.4329 29.4576 8.49025 29.219 8.59701 29.0013C8.70376 28.7836 8.85727 28.5922 9.04657 28.4406L16.8314 22.1454C17.108 21.9257 17.4476 21.7999 17.8006 21.7864C18.1537 21.773 18.5018 21.8725 18.7944 22.0706L28.8641 29.0002C29.3319 29.309 29.6126 29.8348 29.6126 30.3999C29.6126 30.9651 29.3319 31.4891 28.8641 31.7978L19.1537 38.4748C18.5268 38.9052 17.6959 38.8491 17.1289 38.3438ZM58.9478 48.8739L50.6559 43.8848C50.3563 43.7032 50.006 43.6233 49.6573 43.657C49.3086 43.6907 48.9801 43.8363 48.7209 44.072L38.5857 53.163C38.3756 53.3528 38.2169 53.5926 38.1243 53.8602C38.0316 54.1278 38.0081 54.4144 38.0559 54.6935C38.1037 54.9726 38.2213 55.2351 38.3976 55.4566C38.574 55.6782 38.8035 55.8515 39.0648 55.9606L53.1242 61.6869C53.521 61.8447 53.9636 61.8424 54.3587 61.6804C54.7538 61.5185 55.0707 61.2095 55.2426 60.8186L59.6028 51.0091C59.7741 50.6347 59.8021 50.2105 59.6813 49.8169C59.5606 49.4233 59.2996 49.0877 58.9478 48.8739ZM60.0987 36.9459L62.2451 43.7351H62.2264C62.3047 43.9855 62.3235 44.2507 62.2812 44.5097C62.239 44.7686 62.1369 45.0141 61.9831 45.2266C61.743 45.5593 61.3869 45.7899 60.985 45.873C60.5832 45.9562 60.1649 45.8858 59.8124 45.6757L54 42.1763C53.776 42.0441 53.5869 41.86 53.4489 41.6396C53.3108 41.4191 53.2277 41.1687 53.2065 40.9094C53.1793 40.6484 53.2143 40.3846 53.3086 40.1396C53.4029 39.8947 53.5539 39.6756 53.7492 39.5003L57.4358 36.1992C57.8531 35.825 58.4276 35.6884 58.9647 35.8362C59.2306 35.9132 59.4734 36.0548 59.6712 36.2484C59.8691 36.4421 60.016 36.6817 60.0987 36.9459ZM29.3432 54.6919C29.3923 54.4135 29.3699 54.1272 29.2783 53.8599C29.1867 53.5925 29.0287 53.3527 28.8192 53.163L18.6859 44.0701C18.4267 43.8344 18.0982 43.6888 17.7495 43.6551C17.4007 43.6214 17.0505 43.7013 16.7509 43.883L8.46084 48.8739C8.11271 49.0888 7.85385 49.4222 7.73181 49.8128C7.60977 50.2033 7.63274 50.6247 7.79651 50.9997L12.1624 60.8111C12.3331 61.2034 12.6503 61.5135 13.0463 61.6754C13.4424 61.8372 13.886 61.838 14.2826 61.6776L28.3326 55.9513C28.5942 55.8447 28.8243 55.6734 29.0014 55.4534C29.1785 55.2334 29.2967 54.972 29.345 54.6937L29.3432 54.6919ZM34.3191 57.4895L45.5958 62.0781C45.8677 62.1962 46.1031 62.3847 46.2778 62.6242C46.4525 62.8637 46.5601 63.1454 46.5895 63.4404C46.625 63.739 46.5786 64.0416 46.4553 64.3159C46.332 64.5901 46.1365 64.8257 45.8896 64.9974L34.6054 72.8776C34.3355 73.0689 34.0136 73.1734 33.6828 73.177C33.3529 73.1712 33.0323 73.067 32.7621 72.8776L21.4854 64.9992C21.2373 64.8283 21.0402 64.5934 20.9149 64.3195C20.7897 64.0456 20.7409 63.7428 20.774 63.4434C20.807 63.144 20.9205 62.8591 21.1024 62.619C21.2844 62.379 21.5279 62.1927 21.8073 62.0799L33.084 57.4914C33.4803 57.3323 33.9227 57.3305 34.3191 57.4895Z" fill="#BF4722"/>
<mask id="mask0_856_4336" style="mask-type:luminance" maskUnits="userSpaceOnUse" x="82" y="18" width="302" height="59">
<path d="M82.3389 18.6667H383.625V76.6783H82.3389V18.6667Z" fill="white"/>
</mask>
<g mask="url(#mask0_856_4336)">
<path d="M91.4635 40.2414H94.4053C97.2909 40.2414 99.4205 39.7661 100.792 38.8192C102.166 37.8704 102.853 36.379 102.853 34.3467C102.853 32.3331 102.147 30.9015 100.734 30.0501C99.34 29.1967 97.173 28.7719 94.2294 28.7719H91.4635V40.2414ZM91.4635 47.5584V63.8465H82.3389V21.397H94.8769C100.725 21.397 105.051 22.4524 107.857 24.5614C110.664 26.6517 112.065 29.8367 112.065 34.1146C112.065 36.611 111.369 38.8379 109.975 40.7935C108.583 42.7284 106.61 44.248 104.061 45.352C110.536 54.8959 114.754 61.0601 116.715 63.8465H106.591L96.3178 47.5584H91.4635Z" fill="white"/>
<path d="M129.905 37.077C128.002 37.077 126.51 37.6758 125.432 38.8772C124.351 40.0561 123.733 41.7404 123.576 43.9298H136.174C136.135 41.7404 135.556 40.0561 134.437 38.8772C133.318 37.6758 131.808 37.077 129.905 37.077ZM131.17 64.4285C125.874 64.4285 121.733 62.9876 118.75 60.102C115.767 57.2182 114.277 53.1331 114.277 47.8484C114.277 42.4084 115.649 38.2091 118.396 35.2468C121.164 32.2657 124.98 30.7743 129.845 30.7743C134.495 30.7743 138.116 32.0824 140.706 34.6947C143.296 37.309 144.591 40.9188 144.591 45.5261V49.8227H123.37C123.469 52.3396 124.224 54.3046 125.636 55.7174C127.049 57.1303 129.031 57.8377 131.582 57.8377C133.565 57.8377 135.437 57.6337 137.203 57.2276C139.11 56.7717 140.964 56.1195 142.737 55.2814V62.1343C141.167 62.909 139.49 63.4798 137.703 63.8465C135.919 64.2339 133.741 64.4285 131.17 64.4285ZM159.899 64.4285C156.033 64.4285 152.994 62.9483 150.774 59.986C148.577 57.0236 147.479 52.9198 147.479 47.6744C147.479 42.3504 148.596 38.2091 150.834 35.2487C153.089 32.2657 156.19 30.7761 160.135 30.7761C164.274 30.7761 167.433 32.3631 169.611 35.5368H169.905C169.456 33.1172 169.229 30.9595 169.229 29.062V18.6667H178.234V63.8465H171.348L169.611 59.636H169.229C167.19 62.8304 164.078 64.4285 159.899 64.4285ZM163.048 57.3736C165.343 57.3736 167.021 56.7148 168.082 55.3974C169.16 54.0819 169.748 51.8456 169.847 48.6905V47.7324C169.847 44.248 169.297 41.7516 168.198 40.2414C167.118 38.7312 165.354 37.9771 162.9 37.9771C160.898 37.9771 159.339 38.8192 158.222 40.5034C157.122 42.1689 156.572 44.596 156.572 47.7904C156.572 50.9848 157.133 53.3857 158.25 54.9913C159.369 56.5782 160.967 57.3736 163.048 57.3736ZM212.261 63.8465L209.729 52.495L206.316 38.1511H206.11L200.105 63.8465H190.45L181.092 31.3843H190.039L193.836 45.7581C194.444 48.3331 195.061 51.8849 195.69 56.4136H195.866C195.945 54.9427 196.289 52.611 196.897 49.4166L197.367 46.9483L201.43 31.3843H211.318L215.175 46.9483L215.526 48.8365C215.9 50.6338 216.205 52.4447 216.44 54.2653C216.576 55.156 216.655 55.8727 216.675 56.4136H216.851C217.029 55.0213 217.342 53.1144 217.794 50.6947C218.089 49.0435 218.412 47.3977 218.766 45.7581L222.709 31.3862H231.51L222.031 63.8484L212.261 63.8465ZM241.577 47.5584C241.577 50.7715 242.107 53.2005 243.166 54.8454C244.246 56.4922 245.992 57.3155 248.406 57.3155C250.799 57.3155 252.515 56.5015 253.556 54.8753C254.615 53.2285 255.145 50.7902 255.145 47.5584C255.145 44.3453 254.615 41.935 253.556 40.3275C252.497 38.7219 250.76 37.9191 248.346 37.9191C245.953 37.9191 244.225 38.7219 243.166 40.3275C242.107 41.9163 241.577 44.3247 241.577 47.5584ZM264.327 47.5584C264.327 52.843 262.916 56.975 260.091 59.956C257.265 62.9371 253.331 64.4285 248.288 64.4285C245.129 64.4285 242.343 63.7511 239.929 62.3962C237.517 61.0208 235.662 59.0559 234.367 56.5015C233.072 53.9453 232.425 50.9642 232.425 47.5565C232.425 42.255 233.826 38.1305 236.633 35.1888C239.438 32.247 243.383 30.7761 248.464 30.7761C251.623 30.7761 254.409 31.4536 256.823 32.8084C259.237 34.1633 261.09 36.1076 262.385 38.6433C263.68 41.1808 264.327 44.1506 264.327 47.5584ZM276.485 47.5584C276.485 50.7715 277.015 53.2005 278.076 54.8454C279.154 56.4922 280.902 57.3155 283.314 57.3155C285.707 57.3155 287.425 56.5015 288.464 54.8753C289.525 53.2285 290.055 50.7902 290.055 47.5584C290.055 44.3453 289.525 41.935 288.464 40.3275C287.405 38.7219 285.668 37.9191 283.256 37.9191C280.861 37.9191 279.135 38.7219 278.076 40.3275C277.015 41.9163 276.485 44.3247 276.485 47.5584ZM299.237 47.5584C299.237 52.843 297.824 56.975 294.999 59.956C292.173 62.9371 288.239 64.4285 283.196 64.4285C280.037 64.4285 277.251 63.7511 274.839 62.3962C272.425 61.0208 270.57 59.0559 269.275 56.5015C267.98 53.9453 267.333 50.9642 267.333 47.5565C267.333 42.255 268.736 38.1305 271.541 35.1888C274.348 32.247 278.291 30.7761 283.374 30.7761C286.533 30.7761 289.319 31.4536 291.731 32.8084C294.145 34.1633 296 36.1076 297.295 38.6433C298.59 41.1808 299.237 44.1506 299.237 47.5584ZM314.661 64.4285C310.796 64.4285 307.756 62.9483 305.538 59.986C303.339 57.0236 302.241 52.9198 302.241 47.6744C302.241 42.3504 303.36 38.2091 305.596 35.2487C307.853 32.2657 310.954 30.7761 314.897 30.7761C319.038 30.7761 322.197 32.3631 324.373 35.5368H324.669C324.218 33.1172 323.991 30.9595 323.991 29.062V18.6667H332.998V63.8465H326.11L324.373 59.636H323.991C321.952 62.8304 318.841 64.4285 314.661 64.4285ZM317.81 57.3736C320.106 57.3736 321.785 56.7148 322.844 55.3974C323.922 54.0819 324.512 51.8456 324.609 48.6905V47.7324C324.609 44.248 324.061 41.7516 322.962 40.2414C321.882 38.7312 320.116 37.9771 317.664 37.9771C315.662 37.9771 314.103 38.8192 312.984 40.5034C311.886 42.1689 311.335 44.596 311.335 47.7904C311.335 50.9848 311.895 53.3857 313.014 54.9913C314.131 56.5782 315.731 57.3736 317.81 57.3736Z" fill="white"/>
<path d="M336.179 76.3322C334.118 76.3322 332.322 76.1207 330.793 75.6959V68.203C332.361 68.5904 333.795 68.7832 335.09 68.7832C337.09 68.7832 338.523 68.1656 339.386 66.9249C340.251 65.7067 340.681 63.7885 340.681 61.1761V21.397H349.806V61.1181C349.806 66.0734 348.657 69.8479 346.363 72.4416C344.066 75.0353 340.672 76.3322 336.179 76.3322ZM383.625 52.059C383.625 55.8915 382.221 58.9118 379.416 61.1163C376.63 63.3244 372.745 64.4285 367.761 64.4285C363.169 64.4285 359.108 63.5752 355.575 61.8723V53.5111C358.479 54.7874 360.933 55.6875 362.933 56.2115C364.954 56.7336 366.799 56.9956 368.467 56.9956C370.467 56.9956 371.998 56.6175 373.059 55.8615C374.137 55.1074 374.678 53.9846 374.678 52.4931C374.678 51.6622 374.442 50.9268 373.97 50.2868C373.499 49.6299 372.803 48.9993 371.88 48.4005C370.978 47.8016 369.124 46.8416 366.319 45.5261C363.689 44.306 361.717 43.1345 360.403 42.0117C359.112 40.9189 358.043 39.5879 357.254 38.0912C356.468 36.6017 356.077 34.8594 356.077 32.8665C356.077 29.1107 357.36 26.1577 359.932 24.0094C362.522 21.8611 366.092 20.7869 370.645 20.7869C372.881 20.7869 375.011 21.0489 377.032 21.571C379.072 22.095 381.201 22.8286 383.419 23.7792L380.475 30.7743C378.179 29.8461 376.276 29.1967 374.766 28.8281C373.322 28.4667 371.84 28.282 370.351 28.2779C368.624 28.2779 367.299 28.6746 366.377 29.4681C365.456 30.2615 364.994 31.2983 364.994 32.5745C364.994 33.3698 365.181 34.066 365.553 34.6667C365.926 35.2468 366.515 35.8176 367.32 36.379C368.143 36.9217 370.076 37.9079 373.117 39.3413C377.139 41.237 379.897 43.1439 381.388 45.0601C382.878 46.9577 383.625 49.2894 383.625 52.059Z" fill="white"/>
</g>
</svg>
